<svg xmlns="http://www.w3.org/2000/svg" xmlns:xlink="http://www.w3.org/1999/xlink" width="300" zoomAndPan="magnify" viewBox="0 0 224.87999 225" height="300" preserveAspectRatio="xMidYMid meet" version="1.0"><defs><g/></defs><g fill="#5ce1e6" fill-opacity="0.302"><g transform="translate(61.836175, 128.592985)"><g><path d="M 15.640625 0.046875 L 7.671875 0.046875 C 7.003906 0.046875 6.414062 -0.078125 5.90625 -0.328125 C 5.351562 -0.554688 4.921875 -0.863281 4.609375 -1.25 C 4.253906 -1.632812 4 -2.066406 3.84375 -2.546875 C 3.644531 -2.992188 3.546875 -3.425781 3.546875 -3.84375 L 3.546875 -30.171875 C 3.546875 -30.617188 3.644531 -31.066406 3.84375 -31.515625 C 4 -31.960938 4.253906 -32.378906 4.609375 -32.765625 C 4.921875 -33.117188 5.351562 -33.421875 5.90625 -33.671875 C 6.414062 -33.898438 7.003906 -34.015625 7.671875 -34.015625 L 15.640625 -34.015625 C 18.160156 -34.015625 20.492188 -33.613281 22.640625 -32.8125 C 24.785156 -31.976562 26.640625 -30.828125 28.203125 -29.359375 C 29.773438 -27.859375 31.007812 -26.066406 31.90625 -23.984375 C 32.800781 -21.867188 33.25 -19.535156 33.25 -16.984375 C 33.25 -14.421875 32.800781 -12.101562 31.90625 -10.03125 C 31.007812 -7.914062 29.773438 -6.125 28.203125 -4.65625 C 26.640625 -3.15625 24.785156 -2.003906 22.640625 -1.203125 C 20.460938 -0.367188 18.128906 0.046875 15.640625 0.046875 Z M 15.640625 -7.578125 C 17.203125 -7.578125 18.578125 -7.832031 19.765625 -8.34375 C 20.941406 -8.820312 21.929688 -9.492188 22.734375 -10.359375 C 23.535156 -11.191406 24.144531 -12.179688 24.5625 -13.328125 C 24.945312 -14.484375 25.140625 -15.71875 25.140625 -17.03125 C 25.140625 -18.34375 24.945312 -19.570312 24.5625 -20.71875 C 24.144531 -21.875 23.535156 -22.882812 22.734375 -23.75 C 21.929688 -24.570312 20.941406 -25.226562 19.765625 -25.71875 C 18.578125 -26.195312 17.203125 -26.4375 15.640625 -26.4375 L 12.28125 -26.4375 C 12.1875 -26.4375 12.054688 -26.367188 11.890625 -26.234375 C 11.734375 -26.109375 11.65625 -25.914062 11.65625 -25.65625 L 11.65625 -8.296875 C 11.65625 -8.046875 11.734375 -7.867188 11.890625 -7.765625 C 12.054688 -7.640625 12.1875 -7.578125 12.28125 -7.578125 Z M 15.640625 -7.578125 "/></g></g></g><g fill="#5ce1e6" fill-opacity="0.302"><g transform="translate(98.728419, 128.592985)"><g><path d="M 23.265625 -31.03125 L 33.578125 -5.125 C 33.765625 -4.75 33.859375 -4.304688 33.859375 -3.796875 C 33.859375 -3.378906 33.78125 -2.945312 33.625 -2.5 C 33.4375 -2.050781 33.164062 -1.648438 32.8125 -1.296875 C 32.457031 -0.941406 32.039062 -0.65625 31.5625 -0.4375 C 31.050781 -0.175781 30.457031 -0.046875 29.78125 -0.046875 C 28.789062 -0.046875 27.976562 -0.300781 27.34375 -0.8125 C 26.707031 -1.320312 26.257812 -1.898438 26 -2.546875 L 23.359375 -9.3125 C 23.203125 -9.5625 23.007812 -9.6875 22.78125 -9.6875 L 14.671875 -9.6875 C 14.578125 -9.6875 14.484375 -9.65625 14.390625 -9.59375 C 14.265625 -9.53125 14.171875 -9.4375 14.109375 -9.3125 L 11.421875 -2.546875 C 11.160156 -1.898438 10.710938 -1.320312 10.078125 -0.8125 C 9.429688 -0.300781 8.613281 -0.046875 7.625 -0.046875 C 6.988281 -0.046875 6.414062 -0.175781 5.90625 -0.4375 C 5.382812 -0.65625 4.96875 -0.941406 4.65625 -1.296875 C 4.300781 -1.648438 4.046875 -2.050781 3.890625 -2.5 C 3.691406 -2.945312 3.59375 -3.378906 3.59375 -3.796875 C 3.59375 -4.273438 3.675781 -4.71875 3.84375 -5.125 L 14.15625 -31.03125 C 14.46875 -31.832031 15.039062 -32.535156 15.875 -33.140625 C 16.675781 -33.722656 17.632812 -34.015625 18.75 -34.015625 C 19.875 -34.015625 20.835938 -33.707031 21.640625 -33.09375 C 22.429688 -32.488281 22.972656 -31.800781 23.265625 -31.03125 Z M 18.703125 -20.765625 C 18.453125 -20.222656 18.210938 -19.679688 17.984375 -19.140625 C 17.765625 -18.566406 17.539062 -17.988281 17.3125 -17.40625 C 17.3125 -17.34375 17.28125 -17.28125 17.21875 -17.21875 L 20.09375 -17.21875 C 20.09375 -17.25 20.0625 -17.328125 20 -17.453125 C 19.9375 -17.710938 19.84375 -17.988281 19.71875 -18.28125 C 19.582031 -18.5625 19.453125 -18.863281 19.328125 -19.1875 C 19.234375 -19.476562 19.140625 -19.75 19.046875 -20 C 18.921875 -20.257812 18.804688 -20.515625 18.703125 -20.765625 Z M 18.703125 -20.765625 "/></g></g></g><g fill="#5ce1e6" fill-opacity="0.302"><g transform="translate(136.14839, 128.592985)"><g><path d="M 17.125 -22.640625 L 23.078125 -32.140625 C 23.390625 -32.648438 23.851562 -33.082031 24.46875 -33.4375 C 25.039062 -33.789062 25.726562 -33.96875 26.53125 -33.96875 C 27.195312 -33.96875 27.785156 -33.851562 28.296875 -33.625 C 28.804688 -33.375 29.238281 -33.070312 29.59375 -32.71875 C 29.914062 -32.332031 30.15625 -31.914062 30.3125 -31.46875 C 30.476562 -31.019531 30.5625 -30.585938 30.5625 -30.171875 C 30.5625 -29.503906 30.367188 -28.847656 29.984375 -28.203125 L 21.296875 -14.34375 C 21.203125 -14.25 21.15625 -14.101562 21.15625 -13.90625 L 21.15625 -3.734375 C 21.15625 -3.328125 21.078125 -2.898438 20.921875 -2.453125 C 20.722656 -2.003906 20.460938 -1.601562 20.140625 -1.25 C 19.796875 -0.863281 19.382812 -0.554688 18.90625 -0.328125 C 18.382812 -0.078125 17.789062 0.046875 17.125 0.046875 C 16.457031 0.046875 15.863281 -0.078125 15.34375 -0.328125 C 14.832031 -0.554688 14.421875 -0.863281 14.109375 -1.25 C 13.753906 -1.632812 13.492188 -2.050781 13.328125 -2.5 C 13.140625 -2.945312 13.046875 -3.378906 13.046875 -3.796875 L 13.046875 -13.953125 C 13.046875 -14.148438 13 -14.296875 12.90625 -14.390625 L 4.21875 -28.25 C 3.832031 -28.894531 3.640625 -29.550781 3.640625 -30.21875 C 3.640625 -30.632812 3.738281 -31.066406 3.9375 -31.515625 C 4.09375 -31.960938 4.347656 -32.378906 4.703125 -32.765625 C 5.023438 -33.117188 5.441406 -33.421875 5.953125 -33.671875 C 6.429688 -33.898438 7.003906 -34.015625 7.671875 -34.015625 C 8.472656 -34.015625 9.175781 -33.835938 9.78125 -33.484375 C 10.363281 -33.128906 10.828125 -32.695312 11.171875 -32.1875 Z M 17.125 -22.640625 "/></g></g></g><g fill="#5ce1e6" fill-opacity="0.502"><g transform="translate(60.017791, 128.979491)"><g><path d="M 15.640625 0.046875 L 7.671875 0.046875 C 7.003906 0.046875 6.414062 -0.078125 5.90625 -0.328125 C 5.351562 -0.554688 4.921875 -0.863281 4.609375 -1.25 C 4.253906 -1.632812 4 -2.066406 3.84375 -2.546875 C 3.644531 -2.992188 3.546875 -3.425781 3.546875 -3.84375 L 3.546875 -30.171875 C 3.546875 -30.617188 3.644531 -31.066406 3.84375 -31.515625 C 4 -31.960938 4.253906 -32.378906 4.609375 -32.765625 C 4.921875 -33.117188 5.351562 -33.421875 5.90625 -33.671875 C 6.414062 -33.898438 7.003906 -34.015625 7.671875 -34.015625 L 15.640625 -34.015625 C 18.160156 -34.015625 20.492188 -33.613281 22.640625 -32.8125 C 24.785156 -31.976562 26.640625 -30.828125 28.203125 -29.359375 C 29.773438 -27.859375 31.007812 -26.066406 31.90625 -23.984375 C 32.800781 -21.867188 33.25 -19.535156 33.25 -16.984375 C 33.25 -14.421875 32.800781 -12.101562 31.90625 -10.03125 C 31.007812 -7.914062 29.773438 -6.125 28.203125 -4.65625 C 26.640625 -3.15625 24.785156 -2.003906 22.640625 -1.203125 C 20.460938 -0.367188 18.128906 0.046875 15.640625 0.046875 Z M 15.640625 -7.578125 C 17.203125 -7.578125 18.578125 -7.832031 19.765625 -8.34375 C 20.941406 -8.820312 21.929688 -9.492188 22.734375 -10.359375 C 23.535156 -11.191406 24.144531 -12.179688 24.5625 -13.328125 C 24.945312 -14.484375 25.140625 -15.71875 25.140625 -17.03125 C 25.140625 -18.34375 24.945312 -19.570312 24.5625 -20.71875 C 24.144531 -21.875 23.535156 -22.882812 22.734375 -23.75 C 21.929688 -24.570312 20.941406 -25.226562 19.765625 -25.71875 C 18.578125 -26.195312 17.203125 -26.4375 15.640625 -26.4375 L 12.28125 -26.4375 C 12.1875 -26.4375 12.054688 -26.367188 11.890625 -26.234375 C 11.734375 -26.109375 11.65625 -25.914062 11.65625 -25.65625 L 11.65625 -8.296875 C 11.65625 -8.046875 11.734375 -7.867188 11.890625 -7.765625 C 12.054688 -7.640625 12.1875 -7.578125 12.28125 -7.578125 Z M 15.640625 -7.578125 "/></g></g></g><g fill="#5ce1e6" fill-opacity="0.502"><g transform="translate(96.910036, 128.979491)"><g><path d="M 23.265625 -31.03125 L 33.578125 -5.125 C 33.765625 -4.75 33.859375 -4.304688 33.859375 -3.796875 C 33.859375 -3.378906 33.78125 -2.945312 33.625 -2.5 C 33.4375 -2.050781 33.164062 -1.648438 32.8125 -1.296875 C 32.457031 -0.941406 32.039062 -0.65625 31.5625 -0.4375 C 31.050781 -0.175781 30.457031 -0.046875 29.78125 -0.046875 C 28.789062 -0.046875 27.976562 -0.300781 27.34375 -0.8125 C 26.707031 -1.320312 26.257812 -1.898438 26 -2.546875 L 23.359375 -9.3125 C 23.203125 -9.5625 23.007812 -9.6875 22.78125 -9.6875 L 14.671875 -9.6875 C 14.578125 -9.6875 14.484375 -9.65625 14.390625 -9.59375 C 14.265625 -9.53125 14.171875 -9.4375 14.109375 -9.3125 L 11.421875 -2.546875 C 11.160156 -1.898438 10.710938 -1.320312 10.078125 -0.8125 C 9.429688 -0.300781 8.613281 -0.046875 7.625 -0.046875 C 6.988281 -0.046875 6.414062 -0.175781 5.90625 -0.4375 C 5.382812 -0.65625 4.96875 -0.941406 4.65625 -1.296875 C 4.300781 -1.648438 4.046875 -2.050781 3.890625 -2.5 C 3.691406 -2.945312 3.59375 -3.378906 3.59375 -3.796875 C 3.59375 -4.273438 3.675781 -4.71875 3.84375 -5.125 L 14.15625 -31.03125 C 14.46875 -31.832031 15.039062 -32.535156 15.875 -33.140625 C 16.675781 -33.722656 17.632812 -34.015625 18.75 -34.015625 C 19.875 -34.015625 20.835938 -33.707031 21.640625 -33.09375 C 22.429688 -32.488281 22.972656 -31.800781 23.265625 -31.03125 Z M 18.703125 -20.765625 C 18.453125 -20.222656 18.210938 -19.679688 17.984375 -19.140625 C 17.765625 -18.566406 17.539062 -17.988281 17.3125 -17.40625 C 17.3125 -17.34375 17.28125 -17.28125 17.21875 -17.21875 L 20.09375 -17.21875 C 20.09375 -17.25 20.0625 -17.328125 20 -17.453125 C 19.9375 -17.710938 19.84375 -17.988281 19.71875 -18.28125 C 19.582031 -18.5625 19.453125 -18.863281 19.328125 -19.1875 C 19.234375 -19.476562 19.140625 -19.75 19.046875 -20 C 18.921875 -20.257812 18.804688 -20.515625 18.703125 -20.765625 Z M 18.703125 -20.765625 "/></g></g></g><g fill="#5ce1e6" fill-opacity="0.502"><g transform="translate(134.330006, 128.979491)"><g><path d="M 17.125 -22.640625 L 23.078125 -32.140625 C 23.390625 -32.648438 23.851562 -33.082031 24.46875 -33.4375 C 25.039062 -33.789062 25.726562 -33.96875 26.53125 -33.96875 C 27.195312 -33.96875 27.785156 -33.851562 28.296875 -33.625 C 28.804688 -33.375 29.238281 -33.070312 29.59375 -32.71875 C 29.914062 -32.332031 30.15625 -31.914062 30.3125 -31.46875 C 30.476562 -31.019531 30.5625 -30.585938 30.5625 -30.171875 C 30.5625 -29.503906 30.367188 -28.847656 29.984375 -28.203125 L 21.296875 -14.34375 C 21.203125 -14.25 21.15625 -14.101562 21.15625 -13.90625 L 21.15625 -3.734375 C 21.15625 -3.328125 21.078125 -2.898438 20.921875 -2.453125 C 20.722656 -2.003906 20.460938 -1.601562 20.140625 -1.25 C 19.796875 -0.863281 19.382812 -0.554688 18.90625 -0.328125 C 18.382812 -0.078125 17.789062 0.046875 17.125 0.046875 C 16.457031 0.046875 15.863281 -0.078125 15.34375 -0.328125 C 14.832031 -0.554688 14.421875 -0.863281 14.109375 -1.25 C 13.753906 -1.632812 13.492188 -2.050781 13.328125 -2.5 C 13.140625 -2.945312 13.046875 -3.378906 13.046875 -3.796875 L 13.046875 -13.953125 C 13.046875 -14.148438 13 -14.296875 12.90625 -14.390625 L 4.21875 -28.25 C 3.832031 -28.894531 3.640625 -29.550781 3.640625 -30.21875 C 3.640625 -30.632812 3.738281 -31.066406 3.9375 -31.515625 C 4.09375 -31.960938 4.347656 -32.378906 4.703125 -32.765625 C 5.023438 -33.117188 5.441406 -33.421875 5.953125 -33.671875 C 6.429688 -33.898438 7.003906 -34.015625 7.671875 -34.015625 C 8.472656 -34.015625 9.175781 -33.835938 9.78125 -33.484375 C 10.363281 -33.128906 10.828125 -32.695312 11.171875 -32.1875 Z M 17.125 -22.640625 "/></g></g></g><g fill="#1800ad" fill-opacity="1"><g transform="translate(58.199407, 129.366004)"><g><path d="M 15.640625 0.046875 L 7.671875 0.046875 C 7.003906 0.046875 6.414062 -0.078125 5.90625 -0.328125 C 5.351562 -0.554688 4.921875 -0.863281 4.609375 -1.25 C 4.253906 -1.632812 4 -2.066406 3.84375 -2.546875 C 3.644531 -2.992188 3.546875 -3.425781 3.546875 -3.84375 L 3.546875 -30.171875 C 3.546875 -30.617188 3.644531 -31.066406 3.84375 -31.515625 C 4 -31.960938 4.253906 -32.378906 4.609375 -32.765625 C 4.921875 -33.117188 5.351562 -33.421875 5.90625 -33.671875 C 6.414062 -33.898438 7.003906 -34.015625 7.671875 -34.015625 L 15.640625 -34.015625 C 18.160156 -34.015625 20.492188 -33.613281 22.640625 -32.8125 C 24.785156 -31.976562 26.640625 -30.828125 28.203125 -29.359375 C 29.773438 -27.859375 31.007812 -26.066406 31.90625 -23.984375 C 32.800781 -21.867188 33.25 -19.535156 33.25 -16.984375 C 33.25 -14.421875 32.800781 -12.101562 31.90625 -10.03125 C 31.007812 -7.914062 29.773438 -6.125 28.203125 -4.65625 C 26.640625 -3.15625 24.785156 -2.003906 22.640625 -1.203125 C 20.460938 -0.367188 18.128906 0.046875 15.640625 0.046875 Z M 15.640625 -7.578125 C 17.203125 -7.578125 18.578125 -7.832031 19.765625 -8.34375 C 20.941406 -8.820312 21.929688 -9.492188 22.734375 -10.359375 C 23.535156 -11.191406 24.144531 -12.179688 24.5625 -13.328125 C 24.945312 -14.484375 25.140625 -15.71875 25.140625 -17.03125 C 25.140625 -18.34375 24.945312 -19.570312 24.5625 -20.71875 C 24.144531 -21.875 23.535156 -22.882812 22.734375 -23.75 C 21.929688 -24.570312 20.941406 -25.226562 19.765625 -25.71875 C 18.578125 -26.195312 17.203125 -26.4375 15.640625 -26.4375 L 12.28125 -26.4375 C 12.1875 -26.4375 12.054688 -26.367188 11.890625 -26.234375 C 11.734375 -26.109375 11.65625 -25.914062 11.65625 -25.65625 L 11.65625 -8.296875 C 11.65625 -8.046875 11.734375 -7.867188 11.890625 -7.765625 C 12.054688 -7.640625 12.1875 -7.578125 12.28125 -7.578125 Z M 15.640625 -7.578125 "/></g></g></g><g fill="#1800ad" fill-opacity="1"><g transform="translate(95.091652, 129.366004)"><g><path d="M 23.265625 -31.03125 L 33.578125 -5.125 C 33.765625 -4.75 33.859375 -4.304688 33.859375 -3.796875 C 33.859375 -3.378906 33.78125 -2.945312 33.625 -2.5 C 33.4375 -2.050781 33.164062 -1.648438 32.8125 -1.296875 C 32.457031 -0.941406 32.039062 -0.65625 31.5625 -0.4375 C 31.050781 -0.175781 30.457031 -0.046875 29.78125 -0.046875 C 28.789062 -0.046875 27.976562 -0.300781 27.34375 -0.8125 C 26.707031 -1.320312 26.257812 -1.898438 26 -2.546875 L 23.359375 -9.3125 C 23.203125 -9.5625 23.007812 -9.6875 22.78125 -9.6875 L 14.671875 -9.6875 C 14.578125 -9.6875 14.484375 -9.65625 14.390625 -9.59375 C 14.265625 -9.53125 14.171875 -9.4375 14.109375 -9.3125 L 11.421875 -2.546875 C 11.160156 -1.898438 10.710938 -1.320312 10.078125 -0.8125 C 9.429688 -0.300781 8.613281 -0.046875 7.625 -0.046875 C 6.988281 -0.046875 6.414062 -0.175781 5.90625 -0.4375 C 5.382812 -0.65625 4.96875 -0.941406 4.65625 -1.296875 C 4.300781 -1.648438 4.046875 -2.050781 3.890625 -2.5 C 3.691406 -2.945312 3.59375 -3.378906 3.59375 -3.796875 C 3.59375 -4.273438 3.675781 -4.71875 3.84375 -5.125 L 14.15625 -31.03125 C 14.46875 -31.832031 15.039062 -32.535156 15.875 -33.140625 C 16.675781 -33.722656 17.632812 -34.015625 18.75 -34.015625 C 19.875 -34.015625 20.835938 -33.707031 21.640625 -33.09375 C 22.429688 -32.488281 22.972656 -31.800781 23.265625 -31.03125 Z M 18.703125 -20.765625 C 18.453125 -20.222656 18.210938 -19.679688 17.984375 -19.140625 C 17.765625 -18.566406 17.539062 -17.988281 17.3125 -17.40625 C 17.3125 -17.34375 17.28125 -17.28125 17.21875 -17.21875 L 20.09375 -17.21875 C 20.09375 -17.25 20.0625 -17.328125 20 -17.453125 C 19.9375 -17.710938 19.84375 -17.988281 19.71875 -18.28125 C 19.582031 -18.5625 19.453125 -18.863281 19.328125 -19.1875 C 19.234375 -19.476562 19.140625 -19.75 19.046875 -20 C 18.921875 -20.257812 18.804688 -20.515625 18.703125 -20.765625 Z M 18.703125 -20.765625 "/></g></g></g><g fill="#1800ad" fill-opacity="1"><g transform="translate(132.511622, 129.366004)"><g><path d="M 17.125 -22.640625 L 23.078125 -32.140625 C 23.390625 -32.648438 23.851562 -33.082031 24.46875 -33.4375 C 25.039062 -33.789062 25.726562 -33.96875 26.53125 -33.96875 C 27.195312 -33.96875 27.785156 -33.851562 28.296875 -33.625 C 28.804688 -33.375 29.238281 -33.070312 29.59375 -32.71875 C 29.914062 -32.332031 30.15625 -31.914062 30.3125 -31.46875 C 30.476562 -31.019531 30.5625 -30.585938 30.5625 -30.171875 C 30.5625 -29.503906 30.367188 -28.847656 29.984375 -28.203125 L 21.296875 -14.34375 C 21.203125 -14.25 21.15625 -14.101562 21.15625 -13.90625 L 21.15625 -3.734375 C 21.15625 -3.328125 21.078125 -2.898438 20.921875 -2.453125 C 20.722656 -2.003906 20.460938 -1.601562 20.140625 -1.25 C 19.796875 -0.863281 19.382812 -0.554688 18.90625 -0.328125 C 18.382812 -0.078125 17.789062 0.046875 17.125 0.046875 C 16.457031 0.046875 15.863281 -0.078125 15.34375 -0.328125 C 14.832031 -0.554688 14.421875 -0.863281 14.109375 -1.25 C 13.753906 -1.632812 13.492188 -2.050781 13.328125 -2.5 C 13.140625 -2.945312 13.046875 -3.378906 13.046875 -3.796875 L 13.046875 -13.953125 C 13.046875 -14.148438 13 -14.296875 12.90625 -14.390625 L 4.21875 -28.25 C 3.832031 -28.894531 3.640625 -29.550781 3.640625 -30.21875 C 3.640625 -30.632812 3.738281 -31.066406 3.9375 -31.515625 C 4.09375 -31.960938 4.347656 -32.378906 4.703125 -32.765625 C 5.023438 -33.117188 5.441406 -33.421875 5.953125 -33.671875 C 6.429688 -33.898438 7.003906 -34.015625 7.671875 -34.015625 C 8.472656 -34.015625 9.175781 -33.835938 9.78125 -33.484375 C 10.363281 -33.128906 10.828125 -32.695312 11.171875 -32.1875 Z M 17.125 -22.640625 "/></g></g></g></svg>