<svg xmlns="http://www.w3.org/2000/svg" xmlns:xlink="http://www.w3.org/1999/xlink" width="300" zoomAndPan="magnify" viewBox="0 0 224.87999 225" height="300" preserveAspectRatio="xMidYMid meet" version="1.0"><defs><g/></defs><g fill="#5ce1e6" fill-opacity="0.302"><g transform="translate(40.98611, 124.647331)"><g><path d="M 8.953125 -15.53125 L 8.953125 -2.84375 C 8.953125 -2.519531 8.890625 -2.1875 8.765625 -1.84375 C 8.640625 -1.5 8.453125 -1.191406 8.203125 -0.921875 C 7.929688 -0.628906 7.601562 -0.394531 7.21875 -0.21875 C 6.820312 -0.0195312 6.363281 0.078125 5.84375 0.078125 C 5.320312 0.078125 4.878906 -0.0195312 4.515625 -0.21875 C 4.117188 -0.394531 3.796875 -0.628906 3.546875 -0.921875 C 3.273438 -1.222656 3.078125 -1.546875 2.953125 -1.890625 C 2.804688 -2.234375 2.734375 -2.566406 2.734375 -2.890625 L 2.734375 -23.265625 C 2.734375 -23.585938 2.804688 -23.921875 2.953125 -24.265625 C 3.078125 -24.609375 3.273438 -24.925781 3.546875 -25.21875 C 3.816406 -25.488281 4.148438 -25.722656 4.546875 -25.921875 C 4.921875 -26.097656 5.363281 -26.1875 5.875 -26.1875 C 6.863281 -26.1875 7.640625 -25.863281 8.203125 -25.21875 L 15.453125 -17.375 L 22.890625 -25.15625 C 23.160156 -25.425781 23.503906 -25.644531 23.921875 -25.8125 C 24.316406 -25.988281 24.75 -26.078125 25.21875 -26.078125 C 25.738281 -26.078125 26.195312 -25.988281 26.59375 -25.8125 C 26.957031 -25.644531 27.273438 -25.425781 27.546875 -25.15625 C 27.816406 -24.851562 28.03125 -24.539062 28.1875 -24.21875 C 28.300781 -23.875 28.359375 -23.53125 28.359375 -23.1875 L 28.359375 -2.8125 C 28.359375 -2.488281 28.300781 -2.15625 28.1875 -1.8125 C 28.03125 -1.46875 27.832031 -1.160156 27.59375 -0.890625 C 27.320312 -0.585938 27 -0.351562 26.625 -0.1875 C 26.226562 0.0078125 25.773438 0.109375 25.265625 0.109375 C 24.742188 0.109375 24.296875 0.0078125 23.921875 -0.1875 C 23.535156 -0.351562 23.21875 -0.585938 22.96875 -0.890625 C 22.695312 -1.179688 22.5 -1.5 22.375 -1.84375 C 22.226562 -2.1875 22.15625 -2.519531 22.15625 -2.84375 L 22.15625 -15.53125 L 17.234375 -10.421875 C 17.035156 -10.234375 16.800781 -10.0625 16.53125 -9.90625 C 16.238281 -9.757812 15.90625 -9.6875 15.53125 -9.6875 C 15.1875 -9.6875 14.878906 -9.757812 14.609375 -9.90625 C 14.316406 -10.0625 14.070312 -10.234375 13.875 -10.421875 Z M 8.953125 -15.53125 "/></g></g></g><g fill="#5ce1e6" fill-opacity="0.302"><g transform="translate(72.26809, 124.647331)"><g><path d="M 16.34375 0 C 14.425781 0 12.640625 -0.320312 10.984375 -0.96875 C 9.304688 -1.582031 7.863281 -2.46875 6.65625 -3.625 C 5.445312 -4.757812 4.5 -6.140625 3.8125 -7.765625 C 3.125 -9.367188 2.78125 -11.15625 2.78125 -13.125 C 2.78125 -15.101562 3.125 -16.894531 3.8125 -18.5 C 4.5 -20.09375 5.445312 -21.472656 6.65625 -22.640625 C 7.863281 -23.765625 9.304688 -24.648438 10.984375 -25.296875 C 12.640625 -25.910156 14.425781 -26.21875 16.34375 -26.21875 C 18.269531 -26.21875 20.054688 -25.910156 21.703125 -25.296875 C 23.359375 -24.648438 24.789062 -23.765625 26 -22.640625 C 27.207031 -21.472656 28.15625 -20.09375 28.84375 -18.5 C 29.539062 -16.894531 29.890625 -15.101562 29.890625 -13.125 C 29.890625 -11.15625 29.539062 -9.367188 28.84375 -7.765625 C 28.15625 -6.140625 27.207031 -4.757812 26 -3.625 C 24.789062 -2.46875 23.359375 -1.582031 21.703125 -0.96875 C 20.054688 -0.320312 18.269531 0 16.34375 0 Z M 23.640625 -13.125 C 23.640625 -14.132812 23.488281 -15.085938 23.1875 -15.984375 C 22.863281 -16.867188 22.410156 -17.644531 21.828125 -18.3125 C 21.203125 -18.945312 20.4375 -19.453125 19.53125 -19.828125 C 18.613281 -20.191406 17.550781 -20.375 16.34375 -20.375 C 15.132812 -20.375 14.078125 -20.191406 13.171875 -19.828125 C 12.253906 -19.453125 11.488281 -18.945312 10.875 -18.3125 C 10.257812 -17.644531 9.800781 -16.867188 9.5 -15.984375 C 9.1875 -15.085938 9.03125 -14.132812 9.03125 -13.125 C 9.03125 -12.09375 9.1875 -11.144531 9.5 -10.28125 C 9.800781 -9.394531 10.257812 -8.628906 10.875 -7.984375 C 11.488281 -7.316406 12.253906 -6.800781 13.171875 -6.4375 C 14.078125 -6.0625 15.132812 -5.875 16.34375 -5.875 C 17.550781 -5.875 18.613281 -6.0625 19.53125 -6.4375 C 20.4375 -6.800781 21.203125 -7.316406 21.828125 -7.984375 C 22.410156 -8.628906 22.863281 -9.394531 23.1875 -10.28125 C 23.488281 -11.144531 23.640625 -12.09375 23.640625 -13.125 Z M 23.640625 -13.125 "/></g></g></g><g fill="#5ce1e6" fill-opacity="0.302"><g transform="translate(104.918191, 124.647331)"><g><path d="M 8.953125 -15.015625 L 8.953125 -2.890625 C 8.953125 -2.566406 8.890625 -2.234375 8.765625 -1.890625 C 8.640625 -1.546875 8.453125 -1.238281 8.203125 -0.96875 C 7.929688 -0.664062 7.601562 -0.429688 7.21875 -0.265625 C 6.820312 -0.0664062 6.363281 0.03125 5.84375 0.03125 C 5.320312 0.03125 4.878906 -0.0664062 4.515625 -0.265625 C 4.117188 -0.429688 3.796875 -0.664062 3.546875 -0.96875 C 3.273438 -1.257812 3.078125 -1.578125 2.953125 -1.921875 C 2.804688 -2.265625 2.734375 -2.597656 2.734375 -2.921875 L 2.734375 -23.265625 C 2.734375 -23.609375 2.804688 -23.953125 2.953125 -24.296875 C 3.078125 -24.640625 3.273438 -24.960938 3.546875 -25.265625 C 3.816406 -25.535156 4.148438 -25.769531 4.546875 -25.96875 C 4.921875 -26.132812 5.363281 -26.21875 5.875 -26.21875 C 6.394531 -26.21875 6.863281 -26.117188 7.28125 -25.921875 C 7.707031 -25.703125 8.054688 -25.445312 8.328125 -25.15625 L 20.265625 -11.3125 L 20.265625 -23.21875 C 20.265625 -23.539062 20.335938 -23.875 20.484375 -24.21875 C 20.609375 -24.570312 20.804688 -24.894531 21.078125 -25.1875 C 21.347656 -25.457031 21.679688 -25.691406 22.078125 -25.890625 C 22.453125 -26.054688 22.894531 -26.140625 23.40625 -26.140625 C 23.925781 -26.140625 24.382812 -26.054688 24.78125 -25.890625 C 25.144531 -25.691406 25.460938 -25.457031 25.734375 -25.1875 C 26.003906 -24.914062 26.21875 -24.609375 26.375 -24.265625 C 26.5 -23.921875 26.5625 -23.585938 26.5625 -23.265625 L 26.5625 -2.890625 C 26.5625 -2.566406 26.5 -2.234375 26.375 -1.890625 C 26.21875 -1.546875 26.019531 -1.238281 25.78125 -0.96875 C 25.507812 -0.664062 25.1875 -0.429688 24.8125 -0.265625 C 24.414062 -0.0664062 23.960938 0.03125 23.453125 0.03125 C 22.929688 0.03125 22.460938 -0.078125 22.046875 -0.296875 C 21.617188 -0.492188 21.269531 -0.753906 21 -1.078125 Z M 8.953125 -15.015625 "/></g></g></g><g fill="#5ce1e6" fill-opacity="0.302"><g transform="translate(134.314379, 124.647331)"><g><path d="M 5.84375 -26.140625 L 21.59375 -26.140625 C 22.113281 -26.140625 22.570312 -26.054688 22.96875 -25.890625 C 23.332031 -25.691406 23.648438 -25.457031 23.921875 -25.1875 C 24.191406 -24.914062 24.40625 -24.609375 24.5625 -24.265625 C 24.6875 -23.921875 24.75 -23.585938 24.75 -23.265625 C 24.75 -22.941406 24.6875 -22.609375 24.5625 -22.265625 C 24.4375 -21.890625 24.25 -21.566406 24 -21.296875 C 23.726562 -21.023438 23.394531 -20.804688 23 -20.640625 C 22.601562 -20.441406 22.148438 -20.34375 21.640625 -20.34375 L 17.34375 -20.34375 C 17.269531 -20.34375 17.171875 -20.289062 17.046875 -20.1875 C 16.921875 -20.09375 16.859375 -19.945312 16.859375 -19.75 L 16.859375 -2.890625 C 16.859375 -2.566406 16.800781 -2.234375 16.6875 -1.890625 C 16.5625 -1.546875 16.375 -1.238281 16.125 -0.96875 C 15.851562 -0.664062 15.519531 -0.429688 15.125 -0.265625 C 14.726562 -0.0664062 14.273438 0.03125 13.765625 0.03125 C 13.242188 0.03125 12.796875 -0.0664062 12.421875 -0.265625 C 12.023438 -0.429688 11.707031 -0.664062 11.46875 -0.96875 C 11.195312 -1.257812 11 -1.578125 10.875 -1.921875 C 10.726562 -2.265625 10.65625 -2.597656 10.65625 -2.921875 L 10.65625 -19.78125 C 10.65625 -19.976562 10.601562 -20.128906 10.5 -20.234375 C 10.375 -20.328125 10.265625 -20.375 10.171875 -20.375 L 5.875 -20.375 C 5.382812 -20.375 4.941406 -20.460938 4.546875 -20.640625 C 4.148438 -20.785156 3.816406 -20.992188 3.546875 -21.265625 C 3.273438 -21.535156 3.066406 -21.84375 2.921875 -22.1875 C 2.773438 -22.507812 2.703125 -22.851562 2.703125 -23.21875 C 2.703125 -23.539062 2.773438 -23.875 2.921875 -24.21875 C 3.046875 -24.570312 3.242188 -24.894531 3.515625 -25.1875 C 3.785156 -25.457031 4.117188 -25.691406 4.515625 -25.890625 C 4.878906 -26.054688 5.320312 -26.140625 5.84375 -26.140625 Z M 5.84375 -26.140625 "/></g></g></g><g fill="#5ce1e6" fill-opacity="0.302"><g transform="translate(161.898721, 124.647331)"><g><path d="M 18.078125 -17.09375 C 18.160156 -17.09375 18.238281 -17.113281 18.3125 -17.15625 C 18.382812 -17.207031 18.421875 -17.332031 18.421875 -17.53125 L 18.421875 -23.1875 C 18.421875 -23.507812 18.492188 -23.84375 18.640625 -24.1875 C 18.765625 -24.53125 18.960938 -24.851562 19.234375 -25.15625 C 19.503906 -25.425781 19.835938 -25.660156 20.234375 -25.859375 C 20.597656 -26.023438 21.039062 -26.109375 21.5625 -26.109375 C 22.082031 -26.109375 22.539062 -26.023438 22.9375 -25.859375 C 23.300781 -25.660156 23.617188 -25.425781 23.890625 -25.15625 C 24.160156 -24.882812 24.367188 -24.570312 24.515625 -24.21875 C 24.640625 -23.875 24.703125 -23.539062 24.703125 -23.21875 L 24.703125 -2.84375 C 24.703125 -2.519531 24.640625 -2.1875 24.515625 -1.84375 C 24.390625 -1.5 24.207031 -1.191406 23.96875 -0.921875 C 23.695312 -0.628906 23.363281 -0.394531 22.96875 -0.21875 C 22.570312 -0.0195312 22.113281 0.078125 21.59375 0.078125 C 21.082031 0.078125 20.640625 -0.0195312 20.265625 -0.21875 C 19.867188 -0.394531 19.550781 -0.628906 19.3125 -0.921875 C 19.039062 -1.222656 18.84375 -1.546875 18.71875 -1.890625 C 18.570312 -2.234375 18.5 -2.566406 18.5 -2.890625 L 18.5 -10.609375 C 18.5 -10.804688 18.445312 -10.957031 18.34375 -11.0625 C 18.21875 -11.15625 18.109375 -11.203125 18.015625 -11.203125 L 9.4375 -11.203125 C 9.351562 -11.203125 9.253906 -11.15625 9.140625 -11.0625 C 9.015625 -10.957031 8.953125 -10.804688 8.953125 -10.609375 L 8.953125 -2.890625 C 8.953125 -2.566406 8.890625 -2.234375 8.765625 -1.890625 C 8.640625 -1.546875 8.453125 -1.238281 8.203125 -0.96875 C 7.929688 -0.664062 7.601562 -0.429688 7.21875 -0.265625 C 6.820312 -0.0664062 6.363281 0.03125 5.84375 0.03125 C 5.320312 0.03125 4.878906 -0.0664062 4.515625 -0.265625 C 4.117188 -0.429688 3.796875 -0.664062 3.546875 -0.96875 C 3.273438 -1.257812 3.078125 -1.578125 2.953125 -1.921875 C 2.804688 -2.265625 2.734375 -2.597656 2.734375 -2.921875 L 2.734375 -23.265625 C 2.734375 -23.609375 2.804688 -23.953125 2.953125 -24.296875 C 3.078125 -24.640625 3.273438 -24.960938 3.546875 -25.265625 C 3.816406 -25.535156 4.148438 -25.769531 4.546875 -25.96875 C 4.921875 -26.132812 5.363281 -26.21875 5.875 -26.21875 C 6.394531 -26.21875 6.851562 -26.132812 7.25 -25.96875 C 7.613281 -25.769531 7.929688 -25.535156 8.203125 -25.265625 C 8.484375 -24.992188 8.695312 -24.679688 8.84375 -24.328125 C 8.96875 -23.984375 9.03125 -23.640625 9.03125 -23.296875 L 9.03125 -17.671875 C 9.03125 -17.472656 9.085938 -17.328125 9.203125 -17.234375 C 9.328125 -17.140625 9.425781 -17.09375 9.5 -17.09375 Z M 18.078125 -17.09375 "/></g></g></g><g fill="#5ce1e6" fill-opacity="0.502"><g transform="translate(39.584429, 124.945266)"><g><path d="M 8.953125 -15.53125 L 8.953125 -2.84375 C 8.953125 -2.519531 8.890625 -2.1875 8.765625 -1.84375 C 8.640625 -1.5 8.453125 -1.191406 8.203125 -0.921875 C 7.929688 -0.628906 7.601562 -0.394531 7.21875 -0.21875 C 6.820312 -0.0195312 6.363281 0.078125 5.84375 0.078125 C 5.320312 0.078125 4.878906 -0.0195312 4.515625 -0.21875 C 4.117188 -0.394531 3.796875 -0.628906 3.546875 -0.921875 C 3.273438 -1.222656 3.078125 -1.546875 2.953125 -1.890625 C 2.804688 -2.234375 2.734375 -2.566406 2.734375 -2.890625 L 2.734375 -23.265625 C 2.734375 -23.585938 2.804688 -23.921875 2.953125 -24.265625 C 3.078125 -24.609375 3.273438 -24.925781 3.546875 -25.21875 C 3.816406 -25.488281 4.148438 -25.722656 4.546875 -25.921875 C 4.921875 -26.097656 5.363281 -26.1875 5.875 -26.1875 C 6.863281 -26.1875 7.640625 -25.863281 8.203125 -25.21875 L 15.453125 -17.375 L 22.890625 -25.15625 C 23.160156 -25.425781 23.503906 -25.644531 23.921875 -25.8125 C 24.316406 -25.988281 24.75 -26.078125 25.21875 -26.078125 C 25.738281 -26.078125 26.195312 -25.988281 26.59375 -25.8125 C 26.957031 -25.644531 27.273438 -25.425781 27.546875 -25.15625 C 27.816406 -24.851562 28.03125 -24.539062 28.1875 -24.21875 C 28.300781 -23.875 28.359375 -23.53125 28.359375 -23.1875 L 28.359375 -2.8125 C 28.359375 -2.488281 28.300781 -2.15625 28.1875 -1.8125 C 28.03125 -1.46875 27.832031 -1.160156 27.59375 -0.890625 C 27.320312 -0.585938 27 -0.351562 26.625 -0.1875 C 26.226562 0.0078125 25.773438 0.109375 25.265625 0.109375 C 24.742188 0.109375 24.296875 0.0078125 23.921875 -0.1875 C 23.535156 -0.351562 23.21875 -0.585938 22.96875 -0.890625 C 22.695312 -1.179688 22.5 -1.5 22.375 -1.84375 C 22.226562 -2.1875 22.15625 -2.519531 22.15625 -2.84375 L 22.15625 -15.53125 L 17.234375 -10.421875 C 17.035156 -10.234375 16.800781 -10.0625 16.53125 -9.90625 C 16.238281 -9.757812 15.90625 -9.6875 15.53125 -9.6875 C 15.1875 -9.6875 14.878906 -9.757812 14.609375 -9.90625 C 14.316406 -10.0625 14.070312 -10.234375 13.875 -10.421875 Z M 8.953125 -15.53125 "/></g></g></g><g fill="#5ce1e6" fill-opacity="0.502"><g transform="translate(70.866409, 124.945266)"><g><path d="M 16.34375 0 C 14.425781 0 12.640625 -0.320312 10.984375 -0.96875 C 9.304688 -1.582031 7.863281 -2.46875 6.65625 -3.625 C 5.445312 -4.757812 4.5 -6.140625 3.8125 -7.765625 C 3.125 -9.367188 2.78125 -11.15625 2.78125 -13.125 C 2.78125 -15.101562 3.125 -16.894531 3.8125 -18.5 C 4.5 -20.09375 5.445312 -21.472656 6.65625 -22.640625 C 7.863281 -23.765625 9.304688 -24.648438 10.984375 -25.296875 C 12.640625 -25.910156 14.425781 -26.21875 16.34375 -26.21875 C 18.269531 -26.21875 20.054688 -25.910156 21.703125 -25.296875 C 23.359375 -24.648438 24.789062 -23.765625 26 -22.640625 C 27.207031 -21.472656 28.15625 -20.09375 28.84375 -18.5 C 29.539062 -16.894531 29.890625 -15.101562 29.890625 -13.125 C 29.890625 -11.15625 29.539062 -9.367188 28.84375 -7.765625 C 28.15625 -6.140625 27.207031 -4.757812 26 -3.625 C 24.789062 -2.46875 23.359375 -1.582031 21.703125 -0.96875 C 20.054688 -0.320312 18.269531 0 16.34375 0 Z M 23.640625 -13.125 C 23.640625 -14.132812 23.488281 -15.085938 23.1875 -15.984375 C 22.863281 -16.867188 22.410156 -17.644531 21.828125 -18.3125 C 21.203125 -18.945312 20.4375 -19.453125 19.53125 -19.828125 C 18.613281 -20.191406 17.550781 -20.375 16.34375 -20.375 C 15.132812 -20.375 14.078125 -20.191406 13.171875 -19.828125 C 12.253906 -19.453125 11.488281 -18.945312 10.875 -18.3125 C 10.257812 -17.644531 9.800781 -16.867188 9.5 -15.984375 C 9.1875 -15.085938 9.03125 -14.132812 9.03125 -13.125 C 9.03125 -12.09375 9.1875 -11.144531 9.5 -10.28125 C 9.800781 -9.394531 10.257812 -8.628906 10.875 -7.984375 C 11.488281 -7.316406 12.253906 -6.800781 13.171875 -6.4375 C 14.078125 -6.0625 15.132812 -5.875 16.34375 -5.875 C 17.550781 -5.875 18.613281 -6.0625 19.53125 -6.4375 C 20.4375 -6.800781 21.203125 -7.316406 21.828125 -7.984375 C 22.410156 -8.628906 22.863281 -9.394531 23.1875 -10.28125 C 23.488281 -11.144531 23.640625 -12.09375 23.640625 -13.125 Z M 23.640625 -13.125 "/></g></g></g><g fill="#5ce1e6" fill-opacity="0.502"><g transform="translate(103.51651, 124.945266)"><g><path d="M 8.953125 -15.015625 L 8.953125 -2.890625 C 8.953125 -2.566406 8.890625 -2.234375 8.765625 -1.890625 C 8.640625 -1.546875 8.453125 -1.238281 8.203125 -0.96875 C 7.929688 -0.664062 7.601562 -0.429688 7.21875 -0.265625 C 6.820312 -0.0664062 6.363281 0.03125 5.84375 0.03125 C 5.320312 0.03125 4.878906 -0.0664062 4.515625 -0.265625 C 4.117188 -0.429688 3.796875 -0.664062 3.546875 -0.96875 C 3.273438 -1.257812 3.078125 -1.578125 2.953125 -1.921875 C 2.804688 -2.265625 2.734375 -2.597656 2.734375 -2.921875 L 2.734375 -23.265625 C 2.734375 -23.609375 2.804688 -23.953125 2.953125 -24.296875 C 3.078125 -24.640625 3.273438 -24.960938 3.546875 -25.265625 C 3.816406 -25.535156 4.148438 -25.769531 4.546875 -25.96875 C 4.921875 -26.132812 5.363281 -26.21875 5.875 -26.21875 C 6.394531 -26.21875 6.863281 -26.117188 7.28125 -25.921875 C 7.707031 -25.703125 8.054688 -25.445312 8.328125 -25.15625 L 20.265625 -11.3125 L 20.265625 -23.21875 C 20.265625 -23.539062 20.335938 -23.875 20.484375 -24.21875 C 20.609375 -24.570312 20.804688 -24.894531 21.078125 -25.1875 C 21.347656 -25.457031 21.679688 -25.691406 22.078125 -25.890625 C 22.453125 -26.054688 22.894531 -26.140625 23.40625 -26.140625 C 23.925781 -26.140625 24.382812 -26.054688 24.78125 -25.890625 C 25.144531 -25.691406 25.460938 -25.457031 25.734375 -25.1875 C 26.003906 -24.914062 26.21875 -24.609375 26.375 -24.265625 C 26.5 -23.921875 26.5625 -23.585938 26.5625 -23.265625 L 26.5625 -2.890625 C 26.5625 -2.566406 26.5 -2.234375 26.375 -1.890625 C 26.21875 -1.546875 26.019531 -1.238281 25.78125 -0.96875 C 25.507812 -0.664062 25.1875 -0.429688 24.8125 -0.265625 C 24.414062 -0.0664062 23.960938 0.03125 23.453125 0.03125 C 22.929688 0.03125 22.460938 -0.078125 22.046875 -0.296875 C 21.617188 -0.492188 21.269531 -0.753906 21 -1.078125 Z M 8.953125 -15.015625 "/></g></g></g><g fill="#5ce1e6" fill-opacity="0.502"><g transform="translate(132.912698, 124.945266)"><g><path d="M 5.84375 -26.140625 L 21.59375 -26.140625 C 22.113281 -26.140625 22.570312 -26.054688 22.96875 -25.890625 C 23.332031 -25.691406 23.648438 -25.457031 23.921875 -25.1875 C 24.191406 -24.914062 24.40625 -24.609375 24.5625 -24.265625 C 24.6875 -23.921875 24.75 -23.585938 24.75 -23.265625 C 24.75 -22.941406 24.6875 -22.609375 24.5625 -22.265625 C 24.4375 -21.890625 24.25 -21.566406 24 -21.296875 C 23.726562 -21.023438 23.394531 -20.804688 23 -20.640625 C 22.601562 -20.441406 22.148438 -20.34375 21.640625 -20.34375 L 17.34375 -20.34375 C 17.269531 -20.34375 17.171875 -20.289062 17.046875 -20.1875 C 16.921875 -20.09375 16.859375 -19.945312 16.859375 -19.75 L 16.859375 -2.890625 C 16.859375 -2.566406 16.800781 -2.234375 16.6875 -1.890625 C 16.5625 -1.546875 16.375 -1.238281 16.125 -0.96875 C 15.851562 -0.664062 15.519531 -0.429688 15.125 -0.265625 C 14.726562 -0.0664062 14.273438 0.03125 13.765625 0.03125 C 13.242188 0.03125 12.796875 -0.0664062 12.421875 -0.265625 C 12.023438 -0.429688 11.707031 -0.664062 11.46875 -0.96875 C 11.195312 -1.257812 11 -1.578125 10.875 -1.921875 C 10.726562 -2.265625 10.65625 -2.597656 10.65625 -2.921875 L 10.65625 -19.78125 C 10.65625 -19.976562 10.601562 -20.128906 10.5 -20.234375 C 10.375 -20.328125 10.265625 -20.375 10.171875 -20.375 L 5.875 -20.375 C 5.382812 -20.375 4.941406 -20.460938 4.546875 -20.640625 C 4.148438 -20.785156 3.816406 -20.992188 3.546875 -21.265625 C 3.273438 -21.535156 3.066406 -21.84375 2.921875 -22.1875 C 2.773438 -22.507812 2.703125 -22.851562 2.703125 -23.21875 C 2.703125 -23.539062 2.773438 -23.875 2.921875 -24.21875 C 3.046875 -24.570312 3.242188 -24.894531 3.515625 -25.1875 C 3.785156 -25.457031 4.117188 -25.691406 4.515625 -25.890625 C 4.878906 -26.054688 5.320312 -26.140625 5.84375 -26.140625 Z M 5.84375 -26.140625 "/></g></g></g><g fill="#5ce1e6" fill-opacity="0.502"><g transform="translate(160.49704, 124.945266)"><g><path d="M 18.078125 -17.09375 C 18.160156 -17.09375 18.238281 -17.113281 18.3125 -17.15625 C 18.382812 -17.207031 18.421875 -17.332031 18.421875 -17.53125 L 18.421875 -23.1875 C 18.421875 -23.507812 18.492188 -23.84375 18.640625 -24.1875 C 18.765625 -24.53125 18.960938 -24.851562 19.234375 -25.15625 C 19.503906 -25.425781 19.835938 -25.660156 20.234375 -25.859375 C 20.597656 -26.023438 21.039062 -26.109375 21.5625 -26.109375 C 22.082031 -26.109375 22.539062 -26.023438 22.9375 -25.859375 C 23.300781 -25.660156 23.617188 -25.425781 23.890625 -25.15625 C 24.160156 -24.882812 24.367188 -24.570312 24.515625 -24.21875 C 24.640625 -23.875 24.703125 -23.539062 24.703125 -23.21875 L 24.703125 -2.84375 C 24.703125 -2.519531 24.640625 -2.1875 24.515625 -1.84375 C 24.390625 -1.5 24.207031 -1.191406 23.96875 -0.921875 C 23.695312 -0.628906 23.363281 -0.394531 22.96875 -0.21875 C 22.570312 -0.0195312 22.113281 0.078125 21.59375 0.078125 C 21.082031 0.078125 20.640625 -0.0195312 20.265625 -0.21875 C 19.867188 -0.394531 19.550781 -0.628906 19.3125 -0.921875 C 19.039062 -1.222656 18.84375 -1.546875 18.71875 -1.890625 C 18.570312 -2.234375 18.5 -2.566406 18.5 -2.890625 L 18.5 -10.609375 C 18.5 -10.804688 18.445312 -10.957031 18.34375 -11.0625 C 18.21875 -11.15625 18.109375 -11.203125 18.015625 -11.203125 L 9.4375 -11.203125 C 9.351562 -11.203125 9.253906 -11.15625 9.140625 -11.0625 C 9.015625 -10.957031 8.953125 -10.804688 8.953125 -10.609375 L 8.953125 -2.890625 C 8.953125 -2.566406 8.890625 -2.234375 8.765625 -1.890625 C 8.640625 -1.546875 8.453125 -1.238281 8.203125 -0.96875 C 7.929688 -0.664062 7.601562 -0.429688 7.21875 -0.265625 C 6.820312 -0.0664062 6.363281 0.03125 5.84375 0.03125 C 5.320312 0.03125 4.878906 -0.0664062 4.515625 -0.265625 C 4.117188 -0.429688 3.796875 -0.664062 3.546875 -0.96875 C 3.273438 -1.257812 3.078125 -1.578125 2.953125 -1.921875 C 2.804688 -2.265625 2.734375 -2.597656 2.734375 -2.921875 L 2.734375 -23.265625 C 2.734375 -23.609375 2.804688 -23.953125 2.953125 -24.296875 C 3.078125 -24.640625 3.273438 -24.960938 3.546875 -25.265625 C 3.816406 -25.535156 4.148438 -25.769531 4.546875 -25.96875 C 4.921875 -26.132812 5.363281 -26.21875 5.875 -26.21875 C 6.394531 -26.21875 6.851562 -26.132812 7.25 -25.96875 C 7.613281 -25.769531 7.929688 -25.535156 8.203125 -25.265625 C 8.484375 -24.992188 8.695312 -24.679688 8.84375 -24.328125 C 8.96875 -23.984375 9.03125 -23.640625 9.03125 -23.296875 L 9.03125 -17.671875 C 9.03125 -17.472656 9.085938 -17.328125 9.203125 -17.234375 C 9.328125 -17.140625 9.425781 -17.09375 9.5 -17.09375 Z M 18.078125 -17.09375 "/></g></g></g><g fill="#1800ad" fill-opacity="1"><g transform="translate(38.182747, 125.243204)"><g><path d="M 8.953125 -15.53125 L 8.953125 -2.84375 C 8.953125 -2.519531 8.890625 -2.1875 8.765625 -1.84375 C 8.640625 -1.5 8.453125 -1.191406 8.203125 -0.921875 C 7.929688 -0.628906 7.601562 -0.394531 7.21875 -0.21875 C 6.820312 -0.0195312 6.363281 0.078125 5.84375 0.078125 C 5.320312 0.078125 4.878906 -0.0195312 4.515625 -0.21875 C 4.117188 -0.394531 3.796875 -0.628906 3.546875 -0.921875 C 3.273438 -1.222656 3.078125 -1.546875 2.953125 -1.890625 C 2.804688 -2.234375 2.734375 -2.566406 2.734375 -2.890625 L 2.734375 -23.265625 C 2.734375 -23.585938 2.804688 -23.921875 2.953125 -24.265625 C 3.078125 -24.609375 3.273438 -24.925781 3.546875 -25.21875 C 3.816406 -25.488281 4.148438 -25.722656 4.546875 -25.921875 C 4.921875 -26.097656 5.363281 -26.1875 5.875 -26.1875 C 6.863281 -26.1875 7.640625 -25.863281 8.203125 -25.21875 L 15.453125 -17.375 L 22.890625 -25.15625 C 23.160156 -25.425781 23.503906 -25.644531 23.921875 -25.8125 C 24.316406 -25.988281 24.75 -26.078125 25.21875 -26.078125 C 25.738281 -26.078125 26.195312 -25.988281 26.59375 -25.8125 C 26.957031 -25.644531 27.273438 -25.425781 27.546875 -25.15625 C 27.816406 -24.851562 28.03125 -24.539062 28.1875 -24.21875 C 28.300781 -23.875 28.359375 -23.53125 28.359375 -23.1875 L 28.359375 -2.8125 C 28.359375 -2.488281 28.300781 -2.15625 28.1875 -1.8125 C 28.03125 -1.46875 27.832031 -1.160156 27.59375 -0.890625 C 27.320312 -0.585938 27 -0.351562 26.625 -0.1875 C 26.226562 0.0078125 25.773438 0.109375 25.265625 0.109375 C 24.742188 0.109375 24.296875 0.0078125 23.921875 -0.1875 C 23.535156 -0.351562 23.21875 -0.585938 22.96875 -0.890625 C 22.695312 -1.179688 22.5 -1.5 22.375 -1.84375 C 22.226562 -2.1875 22.15625 -2.519531 22.15625 -2.84375 L 22.15625 -15.53125 L 17.234375 -10.421875 C 17.035156 -10.234375 16.800781 -10.0625 16.53125 -9.90625 C 16.238281 -9.757812 15.90625 -9.6875 15.53125 -9.6875 C 15.1875 -9.6875 14.878906 -9.757812 14.609375 -9.90625 C 14.316406 -10.0625 14.070312 -10.234375 13.875 -10.421875 Z M 8.953125 -15.53125 "/></g></g></g><g fill="#1800ad" fill-opacity="1"><g transform="translate(69.464727, 125.243204)"><g><path d="M 16.34375 0 C 14.425781 0 12.640625 -0.320312 10.984375 -0.96875 C 9.304688 -1.582031 7.863281 -2.46875 6.65625 -3.625 C 5.445312 -4.757812 4.5 -6.140625 3.8125 -7.765625 C 3.125 -9.367188 2.78125 -11.15625 2.78125 -13.125 C 2.78125 -15.101562 3.125 -16.894531 3.8125 -18.5 C 4.5 -20.09375 5.445312 -21.472656 6.65625 -22.640625 C 7.863281 -23.765625 9.304688 -24.648438 10.984375 -25.296875 C 12.640625 -25.910156 14.425781 -26.21875 16.34375 -26.21875 C 18.269531 -26.21875 20.054688 -25.910156 21.703125 -25.296875 C 23.359375 -24.648438 24.789062 -23.765625 26 -22.640625 C 27.207031 -21.472656 28.15625 -20.09375 28.84375 -18.5 C 29.539062 -16.894531 29.890625 -15.101562 29.890625 -13.125 C 29.890625 -11.15625 29.539062 -9.367188 28.84375 -7.765625 C 28.15625 -6.140625 27.207031 -4.757812 26 -3.625 C 24.789062 -2.46875 23.359375 -1.582031 21.703125 -0.96875 C 20.054688 -0.320312 18.269531 0 16.34375 0 Z M 23.640625 -13.125 C 23.640625 -14.132812 23.488281 -15.085938 23.1875 -15.984375 C 22.863281 -16.867188 22.410156 -17.644531 21.828125 -18.3125 C 21.203125 -18.945312 20.4375 -19.453125 19.53125 -19.828125 C 18.613281 -20.191406 17.550781 -20.375 16.34375 -20.375 C 15.132812 -20.375 14.078125 -20.191406 13.171875 -19.828125 C 12.253906 -19.453125 11.488281 -18.945312 10.875 -18.3125 C 10.257812 -17.644531 9.800781 -16.867188 9.5 -15.984375 C 9.1875 -15.085938 9.03125 -14.132812 9.03125 -13.125 C 9.03125 -12.09375 9.1875 -11.144531 9.5 -10.28125 C 9.800781 -9.394531 10.257812 -8.628906 10.875 -7.984375 C 11.488281 -7.316406 12.253906 -6.800781 13.171875 -6.4375 C 14.078125 -6.0625 15.132812 -5.875 16.34375 -5.875 C 17.550781 -5.875 18.613281 -6.0625 19.53125 -6.4375 C 20.4375 -6.800781 21.203125 -7.316406 21.828125 -7.984375 C 22.410156 -8.628906 22.863281 -9.394531 23.1875 -10.28125 C 23.488281 -11.144531 23.640625 -12.09375 23.640625 -13.125 Z M 23.640625 -13.125 "/></g></g></g><g fill="#1800ad" fill-opacity="1"><g transform="translate(102.114828, 125.243204)"><g><path d="M 8.953125 -15.015625 L 8.953125 -2.890625 C 8.953125 -2.566406 8.890625 -2.234375 8.765625 -1.890625 C 8.640625 -1.546875 8.453125 -1.238281 8.203125 -0.96875 C 7.929688 -0.664062 7.601562 -0.429688 7.21875 -0.265625 C 6.820312 -0.0664062 6.363281 0.03125 5.84375 0.03125 C 5.320312 0.03125 4.878906 -0.0664062 4.515625 -0.265625 C 4.117188 -0.429688 3.796875 -0.664062 3.546875 -0.96875 C 3.273438 -1.257812 3.078125 -1.578125 2.953125 -1.921875 C 2.804688 -2.265625 2.734375 -2.597656 2.734375 -2.921875 L 2.734375 -23.265625 C 2.734375 -23.609375 2.804688 -23.953125 2.953125 -24.296875 C 3.078125 -24.640625 3.273438 -24.960938 3.546875 -25.265625 C 3.816406 -25.535156 4.148438 -25.769531 4.546875 -25.96875 C 4.921875 -26.132812 5.363281 -26.21875 5.875 -26.21875 C 6.394531 -26.21875 6.863281 -26.117188 7.28125 -25.921875 C 7.707031 -25.703125 8.054688 -25.445312 8.328125 -25.15625 L 20.265625 -11.3125 L 20.265625 -23.21875 C 20.265625 -23.539062 20.335938 -23.875 20.484375 -24.21875 C 20.609375 -24.570312 20.804688 -24.894531 21.078125 -25.1875 C 21.347656 -25.457031 21.679688 -25.691406 22.078125 -25.890625 C 22.453125 -26.054688 22.894531 -26.140625 23.40625 -26.140625 C 23.925781 -26.140625 24.382812 -26.054688 24.78125 -25.890625 C 25.144531 -25.691406 25.460938 -25.457031 25.734375 -25.1875 C 26.003906 -24.914062 26.21875 -24.609375 26.375 -24.265625 C 26.5 -23.921875 26.5625 -23.585938 26.5625 -23.265625 L 26.5625 -2.890625 C 26.5625 -2.566406 26.5 -2.234375 26.375 -1.890625 C 26.21875 -1.546875 26.019531 -1.238281 25.78125 -0.96875 C 25.507812 -0.664062 25.1875 -0.429688 24.8125 -0.265625 C 24.414062 -0.0664062 23.960938 0.03125 23.453125 0.03125 C 22.929688 0.03125 22.460938 -0.078125 22.046875 -0.296875 C 21.617188 -0.492188 21.269531 -0.753906 21 -1.078125 Z M 8.953125 -15.015625 "/></g></g></g><g fill="#1800ad" fill-opacity="1"><g transform="translate(131.511016, 125.243204)"><g><path d="M 5.84375 -26.140625 L 21.59375 -26.140625 C 22.113281 -26.140625 22.570312 -26.054688 22.96875 -25.890625 C 23.332031 -25.691406 23.648438 -25.457031 23.921875 -25.1875 C 24.191406 -24.914062 24.40625 -24.609375 24.5625 -24.265625 C 24.6875 -23.921875 24.75 -23.585938 24.75 -23.265625 C 24.75 -22.941406 24.6875 -22.609375 24.5625 -22.265625 C 24.4375 -21.890625 24.25 -21.566406 24 -21.296875 C 23.726562 -21.023438 23.394531 -20.804688 23 -20.640625 C 22.601562 -20.441406 22.148438 -20.34375 21.640625 -20.34375 L 17.34375 -20.34375 C 17.269531 -20.34375 17.171875 -20.289062 17.046875 -20.1875 C 16.921875 -20.09375 16.859375 -19.945312 16.859375 -19.75 L 16.859375 -2.890625 C 16.859375 -2.566406 16.800781 -2.234375 16.6875 -1.890625 C 16.5625 -1.546875 16.375 -1.238281 16.125 -0.96875 C 15.851562 -0.664062 15.519531 -0.429688 15.125 -0.265625 C 14.726562 -0.0664062 14.273438 0.03125 13.765625 0.03125 C 13.242188 0.03125 12.796875 -0.0664062 12.421875 -0.265625 C 12.023438 -0.429688 11.707031 -0.664062 11.46875 -0.96875 C 11.195312 -1.257812 11 -1.578125 10.875 -1.921875 C 10.726562 -2.265625 10.65625 -2.597656 10.65625 -2.921875 L 10.65625 -19.78125 C 10.65625 -19.976562 10.601562 -20.128906 10.5 -20.234375 C 10.375 -20.328125 10.265625 -20.375 10.171875 -20.375 L 5.875 -20.375 C 5.382812 -20.375 4.941406 -20.460938 4.546875 -20.640625 C 4.148438 -20.785156 3.816406 -20.992188 3.546875 -21.265625 C 3.273438 -21.535156 3.066406 -21.84375 2.921875 -22.1875 C 2.773438 -22.507812 2.703125 -22.851562 2.703125 -23.21875 C 2.703125 -23.539062 2.773438 -23.875 2.921875 -24.21875 C 3.046875 -24.570312 3.242188 -24.894531 3.515625 -25.1875 C 3.785156 -25.457031 4.117188 -25.691406 4.515625 -25.890625 C 4.878906 -26.054688 5.320312 -26.140625 5.84375 -26.140625 Z M 5.84375 -26.140625 "/></g></g></g><g fill="#1800ad" fill-opacity="1"><g transform="translate(159.095358, 125.243204)"><g><path d="M 18.078125 -17.09375 C 18.160156 -17.09375 18.238281 -17.113281 18.3125 -17.15625 C 18.382812 -17.207031 18.421875 -17.332031 18.421875 -17.53125 L 18.421875 -23.1875 C 18.421875 -23.507812 18.492188 -23.84375 18.640625 -24.1875 C 18.765625 -24.53125 18.960938 -24.851562 19.234375 -25.15625 C 19.503906 -25.425781 19.835938 -25.660156 20.234375 -25.859375 C 20.597656 -26.023438 21.039062 -26.109375 21.5625 -26.109375 C 22.082031 -26.109375 22.539062 -26.023438 22.9375 -25.859375 C 23.300781 -25.660156 23.617188 -25.425781 23.890625 -25.15625 C 24.160156 -24.882812 24.367188 -24.570312 24.515625 -24.21875 C 24.640625 -23.875 24.703125 -23.539062 24.703125 -23.21875 L 24.703125 -2.84375 C 24.703125 -2.519531 24.640625 -2.1875 24.515625 -1.84375 C 24.390625 -1.5 24.207031 -1.191406 23.96875 -0.921875 C 23.695312 -0.628906 23.363281 -0.394531 22.96875 -0.21875 C 22.570312 -0.0195312 22.113281 0.078125 21.59375 0.078125 C 21.082031 0.078125 20.640625 -0.0195312 20.265625 -0.21875 C 19.867188 -0.394531 19.550781 -0.628906 19.3125 -0.921875 C 19.039062 -1.222656 18.84375 -1.546875 18.71875 -1.890625 C 18.570312 -2.234375 18.5 -2.566406 18.5 -2.890625 L 18.5 -10.609375 C 18.5 -10.804688 18.445312 -10.957031 18.34375 -11.0625 C 18.21875 -11.15625 18.109375 -11.203125 18.015625 -11.203125 L 9.4375 -11.203125 C 9.351562 -11.203125 9.253906 -11.15625 9.140625 -11.0625 C 9.015625 -10.957031 8.953125 -10.804688 8.953125 -10.609375 L 8.953125 -2.890625 C 8.953125 -2.566406 8.890625 -2.234375 8.765625 -1.890625 C 8.640625 -1.546875 8.453125 -1.238281 8.203125 -0.96875 C 7.929688 -0.664062 7.601562 -0.429688 7.21875 -0.265625 C 6.820312 -0.0664062 6.363281 0.03125 5.84375 0.03125 C 5.320312 0.03125 4.878906 -0.0664062 4.515625 -0.265625 C 4.117188 -0.429688 3.796875 -0.664062 3.546875 -0.96875 C 3.273438 -1.257812 3.078125 -1.578125 2.953125 -1.921875 C 2.804688 -2.265625 2.734375 -2.597656 2.734375 -2.921875 L 2.734375 -23.265625 C 2.734375 -23.609375 2.804688 -23.953125 2.953125 -24.296875 C 3.078125 -24.640625 3.273438 -24.960938 3.546875 -25.265625 C 3.816406 -25.535156 4.148438 -25.769531 4.546875 -25.96875 C 4.921875 -26.132812 5.363281 -26.21875 5.875 -26.21875 C 6.394531 -26.21875 6.851562 -26.132812 7.25 -25.96875 C 7.613281 -25.769531 7.929688 -25.535156 8.203125 -25.265625 C 8.484375 -24.992188 8.695312 -24.679688 8.84375 -24.328125 C 8.96875 -23.984375 9.03125 -23.640625 9.03125 -23.296875 L 9.03125 -17.671875 C 9.03125 -17.472656 9.085938 -17.328125 9.203125 -17.234375 C 9.328125 -17.140625 9.425781 -17.09375 9.5 -17.09375 Z M 18.078125 -17.09375 "/></g></g></g></svg>