<svg xmlns="http://www.w3.org/2000/svg" xmlns:xlink="http://www.w3.org/1999/xlink" width="300" zoomAndPan="magnify" viewBox="0 0 224.87999 225" height="300" preserveAspectRatio="xMidYMid meet" version="1.0"><defs><g/></defs><g fill="#5ce1e6" fill-opacity="0.302"><g transform="translate(50.533613, 128.592985)"><g><path d="M 17.125 -22.640625 L 23.078125 -32.140625 C 23.390625 -32.648438 23.851562 -33.082031 24.46875 -33.4375 C 25.039062 -33.789062 25.726562 -33.96875 26.53125 -33.96875 C 27.195312 -33.96875 27.785156 -33.851562 28.296875 -33.625 C 28.804688 -33.375 29.238281 -33.070312 29.59375 -32.71875 C 29.914062 -32.332031 30.15625 -31.914062 30.3125 -31.46875 C 30.476562 -31.019531 30.5625 -30.585938 30.5625 -30.171875 C 30.5625 -29.503906 30.367188 -28.847656 29.984375 -28.203125 L 21.296875 -14.34375 C 21.203125 -14.25 21.15625 -14.101562 21.15625 -13.90625 L 21.15625 -3.734375 C 21.15625 -3.328125 21.078125 -2.898438 20.921875 -2.453125 C 20.722656 -2.003906 20.460938 -1.601562 20.140625 -1.25 C 19.796875 -0.863281 19.382812 -0.554688 18.90625 -0.328125 C 18.382812 -0.078125 17.789062 0.046875 17.125 0.046875 C 16.457031 0.046875 15.863281 -0.078125 15.34375 -0.328125 C 14.832031 -0.554688 14.421875 -0.863281 14.109375 -1.25 C 13.753906 -1.632812 13.492188 -2.050781 13.328125 -2.5 C 13.140625 -2.945312 13.046875 -3.378906 13.046875 -3.796875 L 13.046875 -13.953125 C 13.046875 -14.148438 13 -14.296875 12.90625 -14.390625 L 4.21875 -28.25 C 3.832031 -28.894531 3.640625 -29.550781 3.640625 -30.21875 C 3.640625 -30.632812 3.738281 -31.066406 3.9375 -31.515625 C 4.09375 -31.960938 4.347656 -32.378906 4.703125 -32.765625 C 5.023438 -33.117188 5.441406 -33.421875 5.953125 -33.671875 C 6.429688 -33.898438 7.003906 -34.015625 7.671875 -34.015625 C 8.472656 -34.015625 9.175781 -33.835938 9.78125 -33.484375 C 10.363281 -33.128906 10.828125 -32.695312 11.171875 -32.1875 Z M 17.125 -22.640625 "/></g></g></g><g fill="#5ce1e6" fill-opacity="0.302"><g transform="translate(84.691321, 128.592985)"><g><path d="M 7.625 0 C 7.019531 0 6.460938 -0.109375 5.953125 -0.328125 C 5.398438 -0.523438 4.953125 -0.800781 4.609375 -1.15625 C 4.222656 -1.5 3.929688 -1.894531 3.734375 -2.34375 C 3.515625 -2.789062 3.40625 -3.253906 3.40625 -3.734375 L 3.40625 -30.171875 C 3.40625 -30.585938 3.5 -31.019531 3.6875 -31.46875 C 3.851562 -31.914062 4.113281 -32.332031 4.46875 -32.71875 C 4.8125 -33.070312 5.238281 -33.375 5.75 -33.625 C 6.226562 -33.851562 6.804688 -33.96875 7.484375 -33.96875 L 21.0625 -33.96875 C 21.726562 -33.96875 22.316406 -33.851562 22.828125 -33.625 C 23.304688 -33.375 23.722656 -33.070312 24.078125 -32.71875 C 24.429688 -32.363281 24.703125 -31.960938 24.890625 -31.515625 C 25.054688 -31.066406 25.140625 -30.617188 25.140625 -30.171875 C 25.140625 -29.753906 25.054688 -29.320312 24.890625 -28.875 C 24.734375 -28.425781 24.492188 -28.023438 24.171875 -27.671875 C 23.828125 -27.328125 23.394531 -27.039062 22.875 -26.8125 C 22.363281 -26.5625 21.773438 -26.4375 21.109375 -26.4375 L 12.1875 -26.4375 C 12.09375 -26.4375 11.960938 -26.367188 11.796875 -26.234375 C 11.640625 -26.109375 11.5625 -25.914062 11.5625 -25.65625 L 11.5625 -22.359375 C 11.5625 -22.097656 11.640625 -21.921875 11.796875 -21.828125 C 11.960938 -21.703125 12.09375 -21.640625 12.1875 -21.640625 L 18.609375 -21.640625 C 19.285156 -21.640625 19.878906 -21.523438 20.390625 -21.296875 C 20.867188 -21.046875 21.285156 -20.742188 21.640625 -20.390625 C 21.984375 -20.035156 22.253906 -19.632812 22.453125 -19.1875 C 22.609375 -18.738281 22.6875 -18.289062 22.6875 -17.84375 C 22.6875 -17.425781 22.609375 -16.992188 22.453125 -16.546875 C 22.253906 -16.097656 22 -15.695312 21.6875 -15.34375 C 21.332031 -14.96875 20.914062 -14.664062 20.4375 -14.4375 C 19.925781 -14.1875 19.332031 -14.0625 18.65625 -14.0625 L 12.234375 -14.0625 C 12.140625 -14.0625 12.007812 -13.992188 11.84375 -13.859375 C 11.6875 -13.734375 11.609375 -13.539062 11.609375 -13.28125 L 11.609375 -8.296875 C 11.609375 -8.046875 11.6875 -7.867188 11.84375 -7.765625 C 12.007812 -7.640625 12.140625 -7.578125 12.234375 -7.578125 L 21.15625 -7.578125 C 21.820312 -7.578125 22.410156 -7.46875 22.921875 -7.25 C 23.410156 -6.988281 23.828125 -6.679688 24.171875 -6.328125 C 24.523438 -5.972656 24.796875 -5.570312 24.984375 -5.125 C 25.148438 -4.6875 25.234375 -4.242188 25.234375 -3.796875 C 25.234375 -3.378906 25.148438 -2.945312 24.984375 -2.5 C 24.828125 -2.050781 24.585938 -1.648438 24.265625 -1.296875 C 23.921875 -0.910156 23.492188 -0.609375 22.984375 -0.390625 C 22.460938 -0.128906 21.867188 0 21.203125 0 Z M 7.625 0 "/></g></g></g><g fill="#5ce1e6" fill-opacity="0.302"><g transform="translate(113.571862, 128.592985)"><g><path d="M 23.265625 -31.03125 L 33.578125 -5.125 C 33.765625 -4.75 33.859375 -4.304688 33.859375 -3.796875 C 33.859375 -3.378906 33.78125 -2.945312 33.625 -2.5 C 33.4375 -2.050781 33.164062 -1.648438 32.8125 -1.296875 C 32.457031 -0.941406 32.039062 -0.65625 31.5625 -0.4375 C 31.050781 -0.175781 30.457031 -0.046875 29.78125 -0.046875 C 28.789062 -0.046875 27.976562 -0.300781 27.34375 -0.8125 C 26.707031 -1.320312 26.257812 -1.898438 26 -2.546875 L 23.359375 -9.3125 C 23.203125 -9.5625 23.007812 -9.6875 22.78125 -9.6875 L 14.671875 -9.6875 C 14.578125 -9.6875 14.484375 -9.65625 14.390625 -9.59375 C 14.265625 -9.53125 14.171875 -9.4375 14.109375 -9.3125 L 11.421875 -2.546875 C 11.160156 -1.898438 10.710938 -1.320312 10.078125 -0.8125 C 9.429688 -0.300781 8.613281 -0.046875 7.625 -0.046875 C 6.988281 -0.046875 6.414062 -0.175781 5.90625 -0.4375 C 5.382812 -0.65625 4.96875 -0.941406 4.65625 -1.296875 C 4.300781 -1.648438 4.046875 -2.050781 3.890625 -2.5 C 3.691406 -2.945312 3.59375 -3.378906 3.59375 -3.796875 C 3.59375 -4.273438 3.675781 -4.71875 3.84375 -5.125 L 14.15625 -31.03125 C 14.46875 -31.832031 15.039062 -32.535156 15.875 -33.140625 C 16.675781 -33.722656 17.632812 -34.015625 18.75 -34.015625 C 19.875 -34.015625 20.835938 -33.707031 21.640625 -33.09375 C 22.429688 -32.488281 22.972656 -31.800781 23.265625 -31.03125 Z M 18.703125 -20.765625 C 18.453125 -20.222656 18.210938 -19.679688 17.984375 -19.140625 C 17.765625 -18.566406 17.539062 -17.988281 17.3125 -17.40625 C 17.3125 -17.34375 17.28125 -17.28125 17.21875 -17.21875 L 20.09375 -17.21875 C 20.09375 -17.25 20.0625 -17.328125 20 -17.453125 C 19.9375 -17.710938 19.84375 -17.988281 19.71875 -18.28125 C 19.582031 -18.5625 19.453125 -18.863281 19.328125 -19.1875 C 19.234375 -19.476562 19.140625 -19.75 19.046875 -20 C 18.921875 -20.257812 18.804688 -20.515625 18.703125 -20.765625 Z M 18.703125 -20.765625 "/></g></g></g><g fill="#5ce1e6" fill-opacity="0.302"><g transform="translate(150.991832, 128.592985)"><g><path d="M 20.921875 -14.34375 C 21.015625 -14.113281 21.1875 -13.796875 21.4375 -13.390625 C 21.695312 -13.003906 21.988281 -12.570312 22.3125 -12.09375 C 22.59375 -11.582031 22.910156 -11.050781 23.265625 -10.5 C 23.929688 -9.414062 24.570312 -8.410156 25.1875 -7.484375 C 25.757812 -6.554688 26.125 -5.960938 26.28125 -5.703125 C 26.664062 -5.128906 26.859375 -4.492188 26.859375 -3.796875 C 26.859375 -3.378906 26.78125 -2.945312 26.625 -2.5 C 26.425781 -2.019531 26.171875 -1.601562 25.859375 -1.25 C 25.503906 -0.894531 25.085938 -0.609375 24.609375 -0.390625 C 24.097656 -0.128906 23.503906 0 22.828125 0 C 22.035156 0 21.347656 -0.175781 20.765625 -0.53125 C 20.160156 -0.882812 19.679688 -1.332031 19.328125 -1.875 L 12.609375 -12.65625 C 12.421875 -12.914062 12.21875 -13.046875 12 -13.046875 C 11.957031 -13.046875 11.890625 -13.03125 11.796875 -13 C 11.703125 -12.9375 11.65625 -12.789062 11.65625 -12.5625 L 11.65625 -3.796875 C 11.65625 -3.378906 11.578125 -2.945312 11.421875 -2.5 C 11.253906 -2.050781 11.015625 -1.648438 10.703125 -1.296875 C 10.347656 -0.910156 9.914062 -0.609375 9.40625 -0.390625 C 8.894531 -0.128906 8.300781 0 7.625 0 C 6.957031 0 6.382812 -0.128906 5.90625 -0.390625 C 5.382812 -0.609375 4.96875 -0.910156 4.65625 -1.296875 C 4.300781 -1.679688 4.046875 -2.097656 3.890625 -2.546875 C 3.691406 -2.992188 3.59375 -3.425781 3.59375 -3.84375 L 3.59375 -30.21875 C 3.59375 -30.664062 3.691406 -31.113281 3.890625 -31.5625 C 4.046875 -32.007812 4.300781 -32.425781 4.65625 -32.8125 C 5.007812 -33.164062 5.441406 -33.46875 5.953125 -33.71875 C 6.429688 -33.945312 7.003906 -34.0625 7.671875 -34.0625 L 15.5 -34.0625 C 17.289062 -34.0625 18.890625 -33.769531 20.296875 -33.1875 C 21.671875 -32.582031 22.835938 -31.785156 23.796875 -30.796875 C 24.722656 -29.804688 25.441406 -28.6875 25.953125 -27.4375 C 26.429688 -26.15625 26.671875 -24.859375 26.671875 -23.546875 C 26.671875 -21.347656 26.175781 -19.523438 25.1875 -18.078125 C 24.195312 -16.609375 22.773438 -15.363281 20.921875 -14.34375 Z M 11.609375 -21.4375 C 11.609375 -21.1875 11.6875 -20.992188 11.84375 -20.859375 C 12.007812 -20.734375 12.140625 -20.671875 12.234375 -20.671875 L 15.390625 -20.671875 C 16.390625 -20.671875 17.160156 -20.925781 17.703125 -21.4375 C 18.210938 -21.914062 18.46875 -22.617188 18.46875 -23.546875 C 18.46875 -24.472656 18.210938 -25.195312 17.703125 -25.71875 C 17.160156 -26.195312 16.390625 -26.4375 15.390625 -26.4375 L 12.234375 -26.4375 C 12.140625 -26.4375 12.007812 -26.367188 11.84375 -26.234375 C 11.6875 -26.109375 11.609375 -25.914062 11.609375 -25.65625 Z M 11.609375 -21.4375 "/></g></g></g><g fill="#5ce1e6" fill-opacity="0.502"><g transform="translate(48.71523, 128.979491)"><g><path d="M 17.125 -22.640625 L 23.078125 -32.140625 C 23.390625 -32.648438 23.851562 -33.082031 24.46875 -33.4375 C 25.039062 -33.789062 25.726562 -33.96875 26.53125 -33.96875 C 27.195312 -33.96875 27.785156 -33.851562 28.296875 -33.625 C 28.804688 -33.375 29.238281 -33.070312 29.59375 -32.71875 C 29.914062 -32.332031 30.15625 -31.914062 30.3125 -31.46875 C 30.476562 -31.019531 30.5625 -30.585938 30.5625 -30.171875 C 30.5625 -29.503906 30.367188 -28.847656 29.984375 -28.203125 L 21.296875 -14.34375 C 21.203125 -14.25 21.15625 -14.101562 21.15625 -13.90625 L 21.15625 -3.734375 C 21.15625 -3.328125 21.078125 -2.898438 20.921875 -2.453125 C 20.722656 -2.003906 20.460938 -1.601562 20.140625 -1.25 C 19.796875 -0.863281 19.382812 -0.554688 18.90625 -0.328125 C 18.382812 -0.078125 17.789062 0.046875 17.125 0.046875 C 16.457031 0.046875 15.863281 -0.078125 15.34375 -0.328125 C 14.832031 -0.554688 14.421875 -0.863281 14.109375 -1.25 C 13.753906 -1.632812 13.492188 -2.050781 13.328125 -2.5 C 13.140625 -2.945312 13.046875 -3.378906 13.046875 -3.796875 L 13.046875 -13.953125 C 13.046875 -14.148438 13 -14.296875 12.90625 -14.390625 L 4.21875 -28.25 C 3.832031 -28.894531 3.640625 -29.550781 3.640625 -30.21875 C 3.640625 -30.632812 3.738281 -31.066406 3.9375 -31.515625 C 4.09375 -31.960938 4.347656 -32.378906 4.703125 -32.765625 C 5.023438 -33.117188 5.441406 -33.421875 5.953125 -33.671875 C 6.429688 -33.898438 7.003906 -34.015625 7.671875 -34.015625 C 8.472656 -34.015625 9.175781 -33.835938 9.78125 -33.484375 C 10.363281 -33.128906 10.828125 -32.695312 11.171875 -32.1875 Z M 17.125 -22.640625 "/></g></g></g><g fill="#5ce1e6" fill-opacity="0.502"><g transform="translate(82.872937, 128.979491)"><g><path d="M 7.625 0 C 7.019531 0 6.460938 -0.109375 5.953125 -0.328125 C 5.398438 -0.523438 4.953125 -0.800781 4.609375 -1.15625 C 4.222656 -1.5 3.929688 -1.894531 3.734375 -2.34375 C 3.515625 -2.789062 3.40625 -3.253906 3.40625 -3.734375 L 3.40625 -30.171875 C 3.40625 -30.585938 3.5 -31.019531 3.6875 -31.46875 C 3.851562 -31.914062 4.113281 -32.332031 4.46875 -32.71875 C 4.8125 -33.070312 5.238281 -33.375 5.75 -33.625 C 6.226562 -33.851562 6.804688 -33.96875 7.484375 -33.96875 L 21.0625 -33.96875 C 21.726562 -33.96875 22.316406 -33.851562 22.828125 -33.625 C 23.304688 -33.375 23.722656 -33.070312 24.078125 -32.71875 C 24.429688 -32.363281 24.703125 -31.960938 24.890625 -31.515625 C 25.054688 -31.066406 25.140625 -30.617188 25.140625 -30.171875 C 25.140625 -29.753906 25.054688 -29.320312 24.890625 -28.875 C 24.734375 -28.425781 24.492188 -28.023438 24.171875 -27.671875 C 23.828125 -27.328125 23.394531 -27.039062 22.875 -26.8125 C 22.363281 -26.5625 21.773438 -26.4375 21.109375 -26.4375 L 12.1875 -26.4375 C 12.09375 -26.4375 11.960938 -26.367188 11.796875 -26.234375 C 11.640625 -26.109375 11.5625 -25.914062 11.5625 -25.65625 L 11.5625 -22.359375 C 11.5625 -22.097656 11.640625 -21.921875 11.796875 -21.828125 C 11.960938 -21.703125 12.09375 -21.640625 12.1875 -21.640625 L 18.609375 -21.640625 C 19.285156 -21.640625 19.878906 -21.523438 20.390625 -21.296875 C 20.867188 -21.046875 21.285156 -20.742188 21.640625 -20.390625 C 21.984375 -20.035156 22.253906 -19.632812 22.453125 -19.1875 C 22.609375 -18.738281 22.6875 -18.289062 22.6875 -17.84375 C 22.6875 -17.425781 22.609375 -16.992188 22.453125 -16.546875 C 22.253906 -16.097656 22 -15.695312 21.6875 -15.34375 C 21.332031 -14.96875 20.914062 -14.664062 20.4375 -14.4375 C 19.925781 -14.1875 19.332031 -14.0625 18.65625 -14.0625 L 12.234375 -14.0625 C 12.140625 -14.0625 12.007812 -13.992188 11.84375 -13.859375 C 11.6875 -13.734375 11.609375 -13.539062 11.609375 -13.28125 L 11.609375 -8.296875 C 11.609375 -8.046875 11.6875 -7.867188 11.84375 -7.765625 C 12.007812 -7.640625 12.140625 -7.578125 12.234375 -7.578125 L 21.15625 -7.578125 C 21.820312 -7.578125 22.410156 -7.46875 22.921875 -7.25 C 23.410156 -6.988281 23.828125 -6.679688 24.171875 -6.328125 C 24.523438 -5.972656 24.796875 -5.570312 24.984375 -5.125 C 25.148438 -4.6875 25.234375 -4.242188 25.234375 -3.796875 C 25.234375 -3.378906 25.148438 -2.945312 24.984375 -2.5 C 24.828125 -2.050781 24.585938 -1.648438 24.265625 -1.296875 C 23.921875 -0.910156 23.492188 -0.609375 22.984375 -0.390625 C 22.460938 -0.128906 21.867188 0 21.203125 0 Z M 7.625 0 "/></g></g></g><g fill="#5ce1e6" fill-opacity="0.502"><g transform="translate(111.753478, 128.979491)"><g><path d="M 23.265625 -31.03125 L 33.578125 -5.125 C 33.765625 -4.75 33.859375 -4.304688 33.859375 -3.796875 C 33.859375 -3.378906 33.78125 -2.945312 33.625 -2.5 C 33.4375 -2.050781 33.164062 -1.648438 32.8125 -1.296875 C 32.457031 -0.941406 32.039062 -0.65625 31.5625 -0.4375 C 31.050781 -0.175781 30.457031 -0.046875 29.78125 -0.046875 C 28.789062 -0.046875 27.976562 -0.300781 27.34375 -0.8125 C 26.707031 -1.320312 26.257812 -1.898438 26 -2.546875 L 23.359375 -9.3125 C 23.203125 -9.5625 23.007812 -9.6875 22.78125 -9.6875 L 14.671875 -9.6875 C 14.578125 -9.6875 14.484375 -9.65625 14.390625 -9.59375 C 14.265625 -9.53125 14.171875 -9.4375 14.109375 -9.3125 L 11.421875 -2.546875 C 11.160156 -1.898438 10.710938 -1.320312 10.078125 -0.8125 C 9.429688 -0.300781 8.613281 -0.046875 7.625 -0.046875 C 6.988281 -0.046875 6.414062 -0.175781 5.90625 -0.4375 C 5.382812 -0.65625 4.96875 -0.941406 4.65625 -1.296875 C 4.300781 -1.648438 4.046875 -2.050781 3.890625 -2.5 C 3.691406 -2.945312 3.59375 -3.378906 3.59375 -3.796875 C 3.59375 -4.273438 3.675781 -4.71875 3.84375 -5.125 L 14.15625 -31.03125 C 14.46875 -31.832031 15.039062 -32.535156 15.875 -33.140625 C 16.675781 -33.722656 17.632812 -34.015625 18.75 -34.015625 C 19.875 -34.015625 20.835938 -33.707031 21.640625 -33.09375 C 22.429688 -32.488281 22.972656 -31.800781 23.265625 -31.03125 Z M 18.703125 -20.765625 C 18.453125 -20.222656 18.210938 -19.679688 17.984375 -19.140625 C 17.765625 -18.566406 17.539062 -17.988281 17.3125 -17.40625 C 17.3125 -17.34375 17.28125 -17.28125 17.21875 -17.21875 L 20.09375 -17.21875 C 20.09375 -17.25 20.0625 -17.328125 20 -17.453125 C 19.9375 -17.710938 19.84375 -17.988281 19.71875 -18.28125 C 19.582031 -18.5625 19.453125 -18.863281 19.328125 -19.1875 C 19.234375 -19.476562 19.140625 -19.75 19.046875 -20 C 18.921875 -20.257812 18.804688 -20.515625 18.703125 -20.765625 Z M 18.703125 -20.765625 "/></g></g></g><g fill="#5ce1e6" fill-opacity="0.502"><g transform="translate(149.173448, 128.979491)"><g><path d="M 20.921875 -14.34375 C 21.015625 -14.113281 21.1875 -13.796875 21.4375 -13.390625 C 21.695312 -13.003906 21.988281 -12.570312 22.3125 -12.09375 C 22.59375 -11.582031 22.910156 -11.050781 23.265625 -10.5 C 23.929688 -9.414062 24.570312 -8.410156 25.1875 -7.484375 C 25.757812 -6.554688 26.125 -5.960938 26.28125 -5.703125 C 26.664062 -5.128906 26.859375 -4.492188 26.859375 -3.796875 C 26.859375 -3.378906 26.78125 -2.945312 26.625 -2.5 C 26.425781 -2.019531 26.171875 -1.601562 25.859375 -1.25 C 25.503906 -0.894531 25.085938 -0.609375 24.609375 -0.390625 C 24.097656 -0.128906 23.503906 0 22.828125 0 C 22.035156 0 21.347656 -0.175781 20.765625 -0.53125 C 20.160156 -0.882812 19.679688 -1.332031 19.328125 -1.875 L 12.609375 -12.65625 C 12.421875 -12.914062 12.21875 -13.046875 12 -13.046875 C 11.957031 -13.046875 11.890625 -13.03125 11.796875 -13 C 11.703125 -12.9375 11.65625 -12.789062 11.65625 -12.5625 L 11.65625 -3.796875 C 11.65625 -3.378906 11.578125 -2.945312 11.421875 -2.5 C 11.253906 -2.050781 11.015625 -1.648438 10.703125 -1.296875 C 10.347656 -0.910156 9.914062 -0.609375 9.40625 -0.390625 C 8.894531 -0.128906 8.300781 0 7.625 0 C 6.957031 0 6.382812 -0.128906 5.90625 -0.390625 C 5.382812 -0.609375 4.96875 -0.910156 4.65625 -1.296875 C 4.300781 -1.679688 4.046875 -2.097656 3.890625 -2.546875 C 3.691406 -2.992188 3.59375 -3.425781 3.59375 -3.84375 L 3.59375 -30.21875 C 3.59375 -30.664062 3.691406 -31.113281 3.890625 -31.5625 C 4.046875 -32.007812 4.300781 -32.425781 4.65625 -32.8125 C 5.007812 -33.164062 5.441406 -33.46875 5.953125 -33.71875 C 6.429688 -33.945312 7.003906 -34.0625 7.671875 -34.0625 L 15.5 -34.0625 C 17.289062 -34.0625 18.890625 -33.769531 20.296875 -33.1875 C 21.671875 -32.582031 22.835938 -31.785156 23.796875 -30.796875 C 24.722656 -29.804688 25.441406 -28.6875 25.953125 -27.4375 C 26.429688 -26.15625 26.671875 -24.859375 26.671875 -23.546875 C 26.671875 -21.347656 26.175781 -19.523438 25.1875 -18.078125 C 24.195312 -16.609375 22.773438 -15.363281 20.921875 -14.34375 Z M 11.609375 -21.4375 C 11.609375 -21.1875 11.6875 -20.992188 11.84375 -20.859375 C 12.007812 -20.734375 12.140625 -20.671875 12.234375 -20.671875 L 15.390625 -20.671875 C 16.390625 -20.671875 17.160156 -20.925781 17.703125 -21.4375 C 18.210938 -21.914062 18.46875 -22.617188 18.46875 -23.546875 C 18.46875 -24.472656 18.210938 -25.195312 17.703125 -25.71875 C 17.160156 -26.195312 16.390625 -26.4375 15.390625 -26.4375 L 12.234375 -26.4375 C 12.140625 -26.4375 12.007812 -26.367188 11.84375 -26.234375 C 11.6875 -26.109375 11.609375 -25.914062 11.609375 -25.65625 Z M 11.609375 -21.4375 "/></g></g></g><g fill="#1800ad" fill-opacity="1"><g transform="translate(46.896846, 129.366004)"><g><path d="M 17.125 -22.640625 L 23.078125 -32.140625 C 23.390625 -32.648438 23.851562 -33.082031 24.46875 -33.4375 C 25.039062 -33.789062 25.726562 -33.96875 26.53125 -33.96875 C 27.195312 -33.96875 27.785156 -33.851562 28.296875 -33.625 C 28.804688 -33.375 29.238281 -33.070312 29.59375 -32.71875 C 29.914062 -32.332031 30.15625 -31.914062 30.3125 -31.46875 C 30.476562 -31.019531 30.5625 -30.585938 30.5625 -30.171875 C 30.5625 -29.503906 30.367188 -28.847656 29.984375 -28.203125 L 21.296875 -14.34375 C 21.203125 -14.25 21.15625 -14.101562 21.15625 -13.90625 L 21.15625 -3.734375 C 21.15625 -3.328125 21.078125 -2.898438 20.921875 -2.453125 C 20.722656 -2.003906 20.460938 -1.601562 20.140625 -1.25 C 19.796875 -0.863281 19.382812 -0.554688 18.90625 -0.328125 C 18.382812 -0.078125 17.789062 0.046875 17.125 0.046875 C 16.457031 0.046875 15.863281 -0.078125 15.34375 -0.328125 C 14.832031 -0.554688 14.421875 -0.863281 14.109375 -1.25 C 13.753906 -1.632812 13.492188 -2.050781 13.328125 -2.5 C 13.140625 -2.945312 13.046875 -3.378906 13.046875 -3.796875 L 13.046875 -13.953125 C 13.046875 -14.148438 13 -14.296875 12.90625 -14.390625 L 4.21875 -28.25 C 3.832031 -28.894531 3.640625 -29.550781 3.640625 -30.21875 C 3.640625 -30.632812 3.738281 -31.066406 3.9375 -31.515625 C 4.09375 -31.960938 4.347656 -32.378906 4.703125 -32.765625 C 5.023438 -33.117188 5.441406 -33.421875 5.953125 -33.671875 C 6.429688 -33.898438 7.003906 -34.015625 7.671875 -34.015625 C 8.472656 -34.015625 9.175781 -33.835938 9.78125 -33.484375 C 10.363281 -33.128906 10.828125 -32.695312 11.171875 -32.1875 Z M 17.125 -22.640625 "/></g></g></g><g fill="#1800ad" fill-opacity="1"><g transform="translate(81.054554, 129.366004)"><g><path d="M 7.625 0 C 7.019531 0 6.460938 -0.109375 5.953125 -0.328125 C 5.398438 -0.523438 4.953125 -0.800781 4.609375 -1.15625 C 4.222656 -1.5 3.929688 -1.894531 3.734375 -2.34375 C 3.515625 -2.789062 3.40625 -3.253906 3.40625 -3.734375 L 3.40625 -30.171875 C 3.40625 -30.585938 3.5 -31.019531 3.6875 -31.46875 C 3.851562 -31.914062 4.113281 -32.332031 4.46875 -32.71875 C 4.8125 -33.070312 5.238281 -33.375 5.75 -33.625 C 6.226562 -33.851562 6.804688 -33.96875 7.484375 -33.96875 L 21.0625 -33.96875 C 21.726562 -33.96875 22.316406 -33.851562 22.828125 -33.625 C 23.304688 -33.375 23.722656 -33.070312 24.078125 -32.71875 C 24.429688 -32.363281 24.703125 -31.960938 24.890625 -31.515625 C 25.054688 -31.066406 25.140625 -30.617188 25.140625 -30.171875 C 25.140625 -29.753906 25.054688 -29.320312 24.890625 -28.875 C 24.734375 -28.425781 24.492188 -28.023438 24.171875 -27.671875 C 23.828125 -27.328125 23.394531 -27.039062 22.875 -26.8125 C 22.363281 -26.5625 21.773438 -26.4375 21.109375 -26.4375 L 12.1875 -26.4375 C 12.09375 -26.4375 11.960938 -26.367188 11.796875 -26.234375 C 11.640625 -26.109375 11.5625 -25.914062 11.5625 -25.65625 L 11.5625 -22.359375 C 11.5625 -22.097656 11.640625 -21.921875 11.796875 -21.828125 C 11.960938 -21.703125 12.09375 -21.640625 12.1875 -21.640625 L 18.609375 -21.640625 C 19.285156 -21.640625 19.878906 -21.523438 20.390625 -21.296875 C 20.867188 -21.046875 21.285156 -20.742188 21.640625 -20.390625 C 21.984375 -20.035156 22.253906 -19.632812 22.453125 -19.1875 C 22.609375 -18.738281 22.6875 -18.289062 22.6875 -17.84375 C 22.6875 -17.425781 22.609375 -16.992188 22.453125 -16.546875 C 22.253906 -16.097656 22 -15.695312 21.6875 -15.34375 C 21.332031 -14.96875 20.914062 -14.664062 20.4375 -14.4375 C 19.925781 -14.1875 19.332031 -14.0625 18.65625 -14.0625 L 12.234375 -14.0625 C 12.140625 -14.0625 12.007812 -13.992188 11.84375 -13.859375 C 11.6875 -13.734375 11.609375 -13.539062 11.609375 -13.28125 L 11.609375 -8.296875 C 11.609375 -8.046875 11.6875 -7.867188 11.84375 -7.765625 C 12.007812 -7.640625 12.140625 -7.578125 12.234375 -7.578125 L 21.15625 -7.578125 C 21.820312 -7.578125 22.410156 -7.46875 22.921875 -7.25 C 23.410156 -6.988281 23.828125 -6.679688 24.171875 -6.328125 C 24.523438 -5.972656 24.796875 -5.570312 24.984375 -5.125 C 25.148438 -4.6875 25.234375 -4.242188 25.234375 -3.796875 C 25.234375 -3.378906 25.148438 -2.945312 24.984375 -2.5 C 24.828125 -2.050781 24.585938 -1.648438 24.265625 -1.296875 C 23.921875 -0.910156 23.492188 -0.609375 22.984375 -0.390625 C 22.460938 -0.128906 21.867188 0 21.203125 0 Z M 7.625 0 "/></g></g></g><g fill="#1800ad" fill-opacity="1"><g transform="translate(109.935094, 129.366004)"><g><path d="M 23.265625 -31.03125 L 33.578125 -5.125 C 33.765625 -4.75 33.859375 -4.304688 33.859375 -3.796875 C 33.859375 -3.378906 33.78125 -2.945312 33.625 -2.5 C 33.4375 -2.050781 33.164062 -1.648438 32.8125 -1.296875 C 32.457031 -0.941406 32.039062 -0.65625 31.5625 -0.4375 C 31.050781 -0.175781 30.457031 -0.046875 29.78125 -0.046875 C 28.789062 -0.046875 27.976562 -0.300781 27.34375 -0.8125 C 26.707031 -1.320312 26.257812 -1.898438 26 -2.546875 L 23.359375 -9.3125 C 23.203125 -9.5625 23.007812 -9.6875 22.78125 -9.6875 L 14.671875 -9.6875 C 14.578125 -9.6875 14.484375 -9.65625 14.390625 -9.59375 C 14.265625 -9.53125 14.171875 -9.4375 14.109375 -9.3125 L 11.421875 -2.546875 C 11.160156 -1.898438 10.710938 -1.320312 10.078125 -0.8125 C 9.429688 -0.300781 8.613281 -0.046875 7.625 -0.046875 C 6.988281 -0.046875 6.414062 -0.175781 5.90625 -0.4375 C 5.382812 -0.65625 4.96875 -0.941406 4.65625 -1.296875 C 4.300781 -1.648438 4.046875 -2.050781 3.890625 -2.5 C 3.691406 -2.945312 3.59375 -3.378906 3.59375 -3.796875 C 3.59375 -4.273438 3.675781 -4.71875 3.84375 -5.125 L 14.15625 -31.03125 C 14.46875 -31.832031 15.039062 -32.535156 15.875 -33.140625 C 16.675781 -33.722656 17.632812 -34.015625 18.75 -34.015625 C 19.875 -34.015625 20.835938 -33.707031 21.640625 -33.09375 C 22.429688 -32.488281 22.972656 -31.800781 23.265625 -31.03125 Z M 18.703125 -20.765625 C 18.453125 -20.222656 18.210938 -19.679688 17.984375 -19.140625 C 17.765625 -18.566406 17.539062 -17.988281 17.3125 -17.40625 C 17.3125 -17.34375 17.28125 -17.28125 17.21875 -17.21875 L 20.09375 -17.21875 C 20.09375 -17.25 20.0625 -17.328125 20 -17.453125 C 19.9375 -17.710938 19.84375 -17.988281 19.71875 -18.28125 C 19.582031 -18.5625 19.453125 -18.863281 19.328125 -19.1875 C 19.234375 -19.476562 19.140625 -19.75 19.046875 -20 C 18.921875 -20.257812 18.804688 -20.515625 18.703125 -20.765625 Z M 18.703125 -20.765625 "/></g></g></g><g fill="#1800ad" fill-opacity="1"><g transform="translate(147.355064, 129.366004)"><g><path d="M 20.921875 -14.34375 C 21.015625 -14.113281 21.1875 -13.796875 21.4375 -13.390625 C 21.695312 -13.003906 21.988281 -12.570312 22.3125 -12.09375 C 22.59375 -11.582031 22.910156 -11.050781 23.265625 -10.5 C 23.929688 -9.414062 24.570312 -8.410156 25.1875 -7.484375 C 25.757812 -6.554688 26.125 -5.960938 26.28125 -5.703125 C 26.664062 -5.128906 26.859375 -4.492188 26.859375 -3.796875 C 26.859375 -3.378906 26.78125 -2.945312 26.625 -2.5 C 26.425781 -2.019531 26.171875 -1.601562 25.859375 -1.25 C 25.503906 -0.894531 25.085938 -0.609375 24.609375 -0.390625 C 24.097656 -0.128906 23.503906 0 22.828125 0 C 22.035156 0 21.347656 -0.175781 20.765625 -0.53125 C 20.160156 -0.882812 19.679688 -1.332031 19.328125 -1.875 L 12.609375 -12.65625 C 12.421875 -12.914062 12.21875 -13.046875 12 -13.046875 C 11.957031 -13.046875 11.890625 -13.03125 11.796875 -13 C 11.703125 -12.9375 11.65625 -12.789062 11.65625 -12.5625 L 11.65625 -3.796875 C 11.65625 -3.378906 11.578125 -2.945312 11.421875 -2.5 C 11.253906 -2.050781 11.015625 -1.648438 10.703125 -1.296875 C 10.347656 -0.910156 9.914062 -0.609375 9.40625 -0.390625 C 8.894531 -0.128906 8.300781 0 7.625 0 C 6.957031 0 6.382812 -0.128906 5.90625 -0.390625 C 5.382812 -0.609375 4.96875 -0.910156 4.65625 -1.296875 C 4.300781 -1.679688 4.046875 -2.097656 3.890625 -2.546875 C 3.691406 -2.992188 3.59375 -3.425781 3.59375 -3.84375 L 3.59375 -30.21875 C 3.59375 -30.664062 3.691406 -31.113281 3.890625 -31.5625 C 4.046875 -32.007812 4.300781 -32.425781 4.65625 -32.8125 C 5.007812 -33.164062 5.441406 -33.46875 5.953125 -33.71875 C 6.429688 -33.945312 7.003906 -34.0625 7.671875 -34.0625 L 15.5 -34.0625 C 17.289062 -34.0625 18.890625 -33.769531 20.296875 -33.1875 C 21.671875 -32.582031 22.835938 -31.785156 23.796875 -30.796875 C 24.722656 -29.804688 25.441406 -28.6875 25.953125 -27.4375 C 26.429688 -26.15625 26.671875 -24.859375 26.671875 -23.546875 C 26.671875 -21.347656 26.175781 -19.523438 25.1875 -18.078125 C 24.195312 -16.609375 22.773438 -15.363281 20.921875 -14.34375 Z M 11.609375 -21.4375 C 11.609375 -21.1875 11.6875 -20.992188 11.84375 -20.859375 C 12.007812 -20.734375 12.140625 -20.671875 12.234375 -20.671875 L 15.390625 -20.671875 C 16.390625 -20.671875 17.160156 -20.925781 17.703125 -21.4375 C 18.210938 -21.914062 18.46875 -22.617188 18.46875 -23.546875 C 18.46875 -24.472656 18.210938 -25.195312 17.703125 -25.71875 C 17.160156 -26.195312 16.390625 -26.4375 15.390625 -26.4375 L 12.234375 -26.4375 C 12.140625 -26.4375 12.007812 -26.367188 11.84375 -26.234375 C 11.6875 -26.109375 11.609375 -25.914062 11.609375 -25.65625 Z M 11.609375 -21.4375 "/></g></g></g></svg>